<svg width="2074" height="2083" viewBox="0 0 2074 2083" fill="none" xmlns="http://www.w3.org/2000/svg">
<g filter="url(#filter0_d_39_5)">
<path d="M1798.26 1398.63C1798.26 1398.63 2209.52 757.887 2020 348.13C1830.49 -61.6268 1378.15 -63.967 1221.78 107.284C1126.2 211.956 1154.06 386.788 927.789 454.424C789.373 495.797 688.61 429.458 482.267 357.517C275.924 285.576 36.3593 441.972 6.92192 691.695C-26.1169 971.986 229.01 1118.51 369.062 1219.4C509.114 1320.3 438.184 1487.65 496.245 1644.36C554.307 1801.07 1490.77 1967.43 1798.26 1398.63Z" fill="#CCF6F0"/>
<path d="M2001.74 691.695C2001.74 691.695 2033.03 329.539 1798.26 149.511C1596.35 -5.32172 1394.52 69.7519 1330.99 137.779C1267.47 205.811 1336.98 287.916 1512.45 276.189C1687.92 264.462 1954.04 385.667 2001.74 691.695Z" fill="white"/>
<path d="M883.637 2074.38C1007.16 2074.38 1107.29 2052.73 1107.29 2026.03C1107.29 1999.33 1007.16 1977.68 883.637 1977.68C760.118 1977.68 659.985 1999.33 659.985 2026.03C659.985 2052.73 760.118 2074.38 883.637 2074.38Z" fill="#D2EDFF"/>
<path d="M1677.1 2026.03C1800.62 2026.03 1900.75 2004.38 1900.75 1977.68C1900.75 1950.98 1800.62 1929.34 1677.1 1929.34C1553.58 1929.34 1453.45 1950.98 1453.45 1977.68C1453.45 2004.38 1553.58 2026.03 1677.1 2026.03Z" fill="#D2EDFF"/>
<path d="M1321.27 1977.68C1641.8 1977.68 1901.63 1956.04 1901.63 1929.34C1901.63 1902.64 1641.8 1880.99 1321.27 1880.99C1000.75 1880.99 740.912 1902.64 740.912 1929.34C740.912 1956.04 1000.75 1977.68 1321.27 1977.68Z" fill="#D2EDFF"/>
<path d="M616.726 1944.77C937.25 1944.77 1197.09 1923.13 1197.09 1896.43C1197.09 1869.73 937.25 1848.08 616.726 1848.08C296.201 1848.08 36.3643 1869.73 36.3643 1896.43C36.3643 1923.13 296.201 1944.77 616.726 1944.77Z" fill="#D2EDFF"/>
<path d="M480.265 1315.16C683.845 1315.16 848.879 1150.13 848.879 946.546C848.879 742.966 683.845 577.933 480.265 577.933C276.686 577.933 111.652 742.966 111.652 946.546C111.652 1150.13 276.686 1315.16 480.265 1315.16Z" fill="#ACDAFF"/>
<path d="M480.265 1265.83C656.6 1265.83 799.547 1122.88 799.547 946.546C799.547 770.211 656.6 627.264 480.265 627.264C303.931 627.264 160.983 770.211 160.983 946.546C160.983 1122.88 303.931 1265.83 480.265 1265.83Z" fill="#E6FFFF"/>
<path opacity="0.57" d="M594.476 958.977C639.007 891.685 643.73 770.417 621.349 705.825C580.56 681.865 533.162 667.902 482.46 667.501C328.351 666.292 202.435 790.238 201.226 944.352C200.876 988.92 211.045 1031.1 229.334 1068.61C231.502 1068.92 233.801 1068.72 235.828 1069.57C337.749 1112.06 510.751 1085.5 594.476 958.977Z" fill="#FFFAFF"/>
<path d="M481.954 731.332C487.323 731.374 491.747 727.017 491.789 721.648L492.258 661.888C492.3 656.519 487.943 652.094 482.574 652.053C477.206 652.011 472.781 656.368 472.739 661.736L472.27 721.497C472.234 726.866 476.586 731.291 481.954 731.332Z" fill="#ACDAFF"/>
<path d="M477.951 1241.03C483.32 1241.08 487.745 1236.72 487.786 1231.35L488.255 1171.59C488.297 1166.22 483.94 1161.8 478.571 1161.75C473.203 1161.71 468.778 1166.07 468.736 1171.44L468.267 1231.2C468.231 1236.57 472.583 1240.99 477.951 1241.03Z" fill="#ACDAFF"/>
<path d="M695.479 948.235C695.438 953.603 699.795 958.028 705.163 958.07L764.924 958.539C770.292 958.581 774.717 954.224 774.759 948.855C774.801 943.487 770.444 939.062 765.075 939.02L705.314 938.551C699.946 938.515 695.521 942.867 695.479 948.235Z" fill="#ACDAFF"/>
<path d="M185.777 944.232C185.735 949.6 190.093 954.025 195.461 954.067L255.222 954.536C260.59 954.578 265.015 950.221 265.057 944.852C265.099 939.484 260.741 935.059 255.373 935.017L195.612 934.548C190.244 934.506 185.819 938.864 185.777 944.232Z" fill="#ACDAFF"/>
<path d="M613.021 730.472C618.409 730.472 622.777 726.104 622.777 720.715C622.777 715.327 618.409 710.958 613.021 710.958C607.632 710.958 603.264 715.327 603.264 720.715C603.264 726.104 607.632 730.472 613.021 730.472Z" fill="#ACDAFF"/>
<path d="M347.505 1182.13C352.894 1182.13 357.262 1177.76 357.262 1172.37C357.262 1166.98 352.894 1162.61 347.505 1162.61C342.117 1162.61 337.749 1166.98 337.749 1172.37C337.749 1177.76 342.117 1182.13 347.505 1182.13Z" fill="#ACDAFF"/>
<path d="M708.15 827.108C713.538 827.108 717.907 822.74 717.907 817.351C717.907 811.963 713.538 807.594 708.15 807.594C702.761 807.594 698.393 811.963 698.393 817.351C698.393 822.74 702.761 827.108 708.15 827.108Z" fill="#ACDAFF"/>
<path d="M252.381 1085.5C257.77 1085.5 262.138 1081.13 262.138 1075.74C262.138 1070.35 257.77 1065.98 252.381 1065.98C246.993 1065.98 242.625 1070.35 242.625 1075.74C242.625 1081.13 246.993 1085.5 252.381 1085.5Z" fill="#ACDAFF"/>
<path d="M706.096 1089.06C711.485 1089.06 715.853 1084.69 715.853 1079.3C715.853 1073.91 711.485 1069.54 706.096 1069.54C700.708 1069.54 696.339 1073.91 696.339 1079.3C696.339 1084.69 700.708 1089.06 706.096 1089.06Z" fill="#ACDAFF"/>
<path d="M254.435 823.543C259.823 823.543 264.191 819.175 264.191 813.786C264.191 808.398 259.823 804.029 254.435 804.029C249.046 804.029 244.678 808.398 244.678 813.786C244.678 819.175 249.046 823.543 254.435 823.543Z" fill="#ACDAFF"/>
<path d="M609.46 1184.19C614.849 1184.19 619.217 1179.82 619.217 1174.43C619.217 1169.04 614.849 1164.67 609.46 1164.67C604.072 1164.67 599.704 1169.04 599.704 1174.43C599.704 1179.82 604.072 1184.19 609.46 1184.19Z" fill="#ACDAFF"/>
<path d="M351.07 728.419C356.459 728.419 360.827 724.051 360.827 718.662C360.827 713.274 356.459 708.905 351.07 708.905C345.682 708.905 341.313 713.274 341.313 718.662C341.313 724.051 345.682 728.419 351.07 728.419Z" fill="#ACDAFF"/>
<path d="M579.335 873.166C608.522 861.778 744.727 803.19 744.727 803.19L745.228 804.123L746.218 805.968L746.718 806.901C746.718 806.901 622.751 888.25 597.165 906.325C571.58 924.4 480.854 952.67 480.854 952.67L479.202 949.595L478.212 947.75L476.56 944.675C476.56 944.675 550.153 884.554 579.335 873.166Z" fill="#80D4E5"/>
<path d="M387.653 966.352C365.315 962.891 259.297 951.56 259.297 951.56L259.282 950.502L259.251 948.407L259.235 947.349C259.235 947.349 364.866 932.844 387.09 928.711C409.314 924.577 476.424 941.657 476.424 941.657L476.476 945.149L476.507 947.244L476.56 950.736C476.56 950.736 409.992 969.818 387.653 966.352Z" fill="#80D4E5"/>
<path d="M480.265 966.065C491.046 966.065 499.784 957.326 499.784 946.546C499.784 935.766 491.046 927.027 480.265 927.027C469.485 927.027 460.747 935.766 460.747 946.546C460.747 957.326 469.485 966.065 480.265 966.065Z" fill="#ACDAFF"/>
<path d="M286.499 1345.15L199.677 1865.23C198.677 1871.22 203.294 1876.67 209.366 1876.67C213.989 1876.67 217.987 1873.45 218.967 1868.93L332.641 1345.15H286.499Z" fill="#ACDAFF"/>
<path d="M370.433 1313.92L309.26 1837.63C308.556 1843.66 313.434 1848.88 319.501 1848.58C324.119 1848.35 327.955 1844.94 328.711 1840.38L416.523 1311.65L370.433 1313.92Z" fill="#ACDAFF"/>
<path d="M729.358 1345.15L816.179 1865.23C817.18 1871.22 812.562 1876.67 806.49 1876.67C801.867 1876.67 797.869 1873.45 796.89 1868.93L683.216 1345.15H729.358Z" fill="#ACDAFF"/>
<path d="M645.423 1313.92L706.602 1837.63C707.305 1843.66 702.427 1848.88 696.36 1848.58C691.742 1848.35 687.906 1844.94 687.151 1840.38L599.339 1311.65L645.423 1313.92Z" fill="#ACDAFF"/>
<path d="M802.831 1357.26H221.782C208.574 1357.26 197.765 1346.45 197.765 1333.25C197.765 1320.04 208.574 1309.23 221.782 1309.23H802.831C816.038 1309.23 826.848 1320.04 826.848 1333.25C826.848 1346.46 816.038 1357.26 802.831 1357.26Z" fill="#2099FF"/>
<path d="M228.948 1758.54L227.467 1758.02C227.645 1757.53 244.813 1708.26 234.926 1649.96C225.81 1596.2 191.14 1523.5 77.7476 1482.48L78.2792 1481C128.653 1499.22 167.931 1525.15 195.012 1558.06C216.694 1584.41 230.647 1615.26 236.484 1649.75C246.418 1708.45 229.12 1758.05 228.948 1758.54Z" fill="#6CB7D8"/>
<path d="M93.6755 1487.8C93.6755 1487.8 63.8577 1492.3 48.4875 1478.58C33.1121 1464.86 59.3076 1458.23 93.6755 1487.8Z" fill="#6CB7D8"/>
<path d="M124.567 1502.45C124.567 1502.45 115.232 1463 100.743 1455.24C86.2485 1447.47 84.2106 1475.58 124.567 1502.45Z" fill="#6CB7D8"/>
<path d="M119.84 1499.74C119.84 1499.74 79.7126 1494.03 67.1882 1504.68C54.6689 1515.33 80.0879 1527.49 119.84 1499.74Z" fill="#6CB7D8"/>
<path d="M144.498 1514.86C144.498 1514.86 104.37 1509.14 91.8459 1519.79C79.3267 1530.45 104.746 1542.61 144.498 1514.86Z" fill="#6CB7D8"/>
<path d="M169.323 1532.39C169.323 1532.39 129.196 1526.67 116.671 1537.33C104.152 1547.98 129.571 1560.14 169.323 1532.39Z" fill="#6CB7D8"/>
<path d="M193.35 1556.62C193.35 1556.62 153.807 1547.7 140.474 1557.32C127.137 1566.94 151.503 1581.1 193.35 1556.62Z" fill="#6CB7D8"/>
<path d="M215.329 1588.78C215.329 1588.78 178.574 1571.69 163.506 1578.27C148.438 1584.84 169.249 1603.84 215.329 1588.78Z" fill="#6CB7D8"/>
<path d="M231.319 1628.19C231.319 1628.19 201.965 1600.24 185.584 1601.64C169.202 1603.05 182.837 1627.71 231.319 1628.19Z" fill="#6CB7D8"/>
<path d="M238.298 1674.26C238.298 1674.26 219.968 1638.11 204.055 1633.96C188.143 1629.81 192.761 1657.61 238.298 1674.26Z" fill="#6CB7D8"/>
<path d="M236.521 1719.5C236.521 1719.5 226.993 1680.1 212.468 1672.41C197.942 1664.72 196.034 1692.83 236.521 1719.5Z" fill="#6CB7D8"/>
<path d="M152.196 1519.62C152.196 1519.62 156.136 1484.95 142.799 1466.41C129.456 1447.86 124.958 1469.13 130.087 1481.09C135.21 1493.05 152.196 1519.62 152.196 1519.62Z" fill="#6CB7D8"/>
<path d="M172.434 1535.67C172.434 1535.67 181.81 1502.07 171.569 1481.65C161.327 1461.23 153.525 1481.51 156.694 1494.13C159.863 1506.75 172.434 1535.67 172.434 1535.67Z" fill="#6CB7D8"/>
<path d="M191.265 1554.6C191.265 1554.6 208.173 1524.08 202.945 1501.84C197.717 1479.6 185.422 1497.53 185.579 1510.54C185.735 1523.55 191.265 1554.6 191.265 1554.6Z" fill="#6CB7D8"/>
<path d="M209.616 1578.95C209.616 1578.95 226.524 1548.44 221.297 1526.2C216.069 1503.96 203.774 1521.88 203.93 1534.9C204.092 1547.91 209.616 1578.95 209.616 1578.95Z" fill="#6CB7D8"/>
<path d="M225.607 1612.27C225.607 1612.27 246.309 1584.19 243.989 1561.46C241.67 1538.73 227.17 1554.92 225.648 1567.84C224.132 1580.77 225.607 1612.27 225.607 1612.27Z" fill="#6CB7D8"/>
<path d="M236.401 1656.51C236.401 1656.51 262.06 1632.87 264.092 1610.12C266.13 1587.36 248.816 1600.51 244.876 1612.91C240.93 1625.3 236.401 1656.51 236.401 1656.51Z" fill="#6CB7D8"/>
<path d="M238.209 1696.7C238.209 1696.7 268.09 1678.7 274.662 1656.82C281.229 1634.94 261.632 1644.33 255.274 1655.69C248.915 1667.04 238.209 1696.7 238.209 1696.7Z" fill="#6CB7D8"/>
<path d="M421.448 1680.99L422.928 1680.46C422.751 1679.97 405.582 1630.7 415.469 1572.4C424.585 1518.64 459.255 1445.94 572.648 1404.93L572.116 1403.45C521.742 1421.67 482.465 1447.59 455.383 1480.5C433.701 1506.85 419.749 1537.7 413.911 1572.2C403.977 1630.9 421.27 1680.49 421.448 1680.99Z" fill="#6CB7D8"/>
<path d="M556.72 1410.24C556.72 1410.24 586.538 1414.75 601.908 1401.02C617.283 1387.31 591.088 1380.68 556.72 1410.24Z" fill="#6CB7D8"/>
<path d="M525.829 1424.89C525.829 1424.89 535.163 1385.45 549.653 1377.68C564.147 1369.92 566.185 1398.03 525.829 1424.89Z" fill="#6CB7D8"/>
<path d="M530.556 1422.19C530.556 1422.19 570.683 1416.47 583.207 1427.12C595.726 1437.78 570.308 1449.94 530.556 1422.19Z" fill="#6CB7D8"/>
<path d="M505.898 1437.3C505.898 1437.3 546.025 1431.59 558.55 1442.24C571.074 1452.89 545.65 1465.06 505.898 1437.3Z" fill="#6CB7D8"/>
<path d="M481.073 1454.84C481.073 1454.84 521.2 1449.12 533.725 1459.77C546.249 1470.42 520.825 1482.58 481.073 1454.84Z" fill="#6CB7D8"/>
<path d="M457.046 1479.06C457.046 1479.06 496.589 1470.15 509.922 1479.77C523.259 1489.39 498.893 1503.54 457.046 1479.06Z" fill="#6CB7D8"/>
<path d="M435.067 1511.24C435.067 1511.24 471.822 1494.15 486.89 1500.72C501.958 1507.29 481.146 1526.29 435.067 1511.24Z" fill="#6CB7D8"/>
<path d="M419.076 1550.64C419.076 1550.64 448.43 1522.68 464.812 1524.09C481.193 1525.5 467.558 1550.15 419.076 1550.64Z" fill="#6CB7D8"/>
<path d="M412.097 1596.71C412.097 1596.71 430.428 1560.56 446.34 1556.41C462.252 1552.26 457.634 1580.06 412.097 1596.71Z" fill="#6CB7D8"/>
<path d="M413.875 1641.95C413.875 1641.95 423.402 1602.55 437.928 1594.86C452.454 1587.16 454.361 1615.28 413.875 1641.95Z" fill="#6CB7D8"/>
<path d="M498.2 1442.06C498.2 1442.06 494.26 1407.4 507.597 1388.85C520.94 1370.31 525.438 1391.57 520.309 1403.53C515.186 1415.5 498.2 1442.06 498.2 1442.06Z" fill="#6CB7D8"/>
<path d="M477.961 1458.12C477.961 1458.12 468.585 1424.51 478.827 1404.09C489.068 1383.67 496.871 1403.96 493.702 1416.58C490.533 1429.2 477.961 1458.12 477.961 1458.12Z" fill="#6CB7D8"/>
<path d="M459.13 1477.04C459.13 1477.04 442.223 1446.53 447.45 1424.29C452.678 1402.05 464.973 1419.97 464.817 1432.99C464.66 1446 459.13 1477.04 459.13 1477.04Z" fill="#6CB7D8"/>
<path d="M440.779 1501.4C440.779 1501.4 423.871 1470.88 429.099 1448.64C434.326 1426.4 446.622 1444.33 446.465 1457.34C446.304 1470.35 440.779 1501.4 440.779 1501.4Z" fill="#6CB7D8"/>
<path d="M424.789 1534.72C424.789 1534.72 404.087 1506.64 406.406 1483.91C408.725 1461.18 423.225 1477.37 424.747 1490.29C426.264 1503.22 424.789 1534.72 424.789 1534.72Z" fill="#6CB7D8"/>
<path d="M413.995 1578.96C413.995 1578.96 388.336 1555.32 386.303 1532.56C384.265 1509.81 401.58 1522.95 405.52 1535.35C409.465 1547.76 413.995 1578.96 413.995 1578.96Z" fill="#6CB7D8"/>
<path d="M412.186 1619.15C412.186 1619.15 382.306 1601.15 375.733 1579.27C369.161 1557.39 388.763 1566.78 395.122 1578.14C401.481 1589.49 412.186 1619.15 412.186 1619.15Z" fill="#6CB7D8"/>
<path d="M248.706 1613.46C248.706 1613.46 213.864 1510.33 245.225 1480.71C276.585 1451.09 237.667 1409.06 246.882 1381.68C256.102 1354.3 289.86 1338.02 304.584 1388.26C319.308 1438.49 323.478 1440.04 360.478 1442.36C397.478 1444.67 394.632 1519.17 388.091 1553.45C381.55 1587.73 417.888 1533.58 428.88 1570.37C439.872 1607.16 386.626 1683.03 330.623 1722.57C274.62 1762.11 206.124 1649.66 210.826 1621.53C215.532 1593.4 236.088 1631.05 248.706 1613.46Z" fill="#82C4E8"/>
<path d="M253.637 1469.61C251.693 1473.45 248.972 1477.17 245.225 1480.72C213.864 1510.34 248.707 1613.47 248.707 1613.47C236.088 1631.06 215.532 1593.41 210.831 1621.53C206.13 1649.66 274.621 1762.11 330.629 1722.58C333.636 1720.46 336.633 1718.2 339.614 1715.88C333.115 1627.91 303.406 1543.58 253.637 1469.61Z" fill="#6CB7D8"/>
<path d="M311.574 1732.35C311.011 1732.97 310.151 1733.29 309.27 1733.12C307.926 1732.87 307.045 1731.56 307.3 1730.22C307.566 1728.82 333.391 1587.73 268.142 1383.21C267.725 1381.9 268.445 1380.5 269.753 1380.09C271.061 1379.67 272.458 1380.39 272.87 1381.7C338.536 1587.52 312.444 1729.74 312.173 1731.16C312.08 1731.61 311.866 1732.03 311.574 1732.35Z" fill="#98CFF4"/>
<path d="M287.723 1443.87L254.721 1417.28C253.652 1416.42 253.486 1414.86 254.346 1413.79C255.206 1412.74 256.769 1412.56 257.832 1413.42L286.384 1436.42L301.431 1411.21C302.14 1410.02 303.656 1409.64 304.834 1410.35C306.012 1411.05 306.398 1412.57 305.694 1413.75L287.723 1443.87Z" fill="#98CFF4"/>
<path d="M368.421 1464.09C368.369 1464.14 368.317 1464.2 368.26 1464.25L304.053 1522.99L253.043 1488.33C251.912 1487.56 251.615 1486.02 252.386 1484.89C253.153 1483.75 254.701 1483.46 255.832 1484.23L303.594 1516.68L364.908 1460.59C365.919 1459.67 367.488 1459.74 368.416 1460.75C369.286 1461.7 369.276 1463.15 368.421 1464.09Z" fill="#98CFF4"/>
<path d="M382.332 1545.98C382.306 1546 382.28 1546.04 382.253 1546.06L314.216 1614.67L247.033 1561.11C245.96 1560.26 245.782 1558.7 246.637 1557.63C247.549 1556.54 249.05 1556.38 250.124 1557.23L313.82 1608.01L378.725 1542.57C379.689 1541.6 381.263 1541.59 382.233 1542.55C383.186 1543.49 383.218 1545 382.332 1545.98Z" fill="#98CFF4"/>
<path d="M411.597 1594.34C411.576 1594.36 411.55 1594.39 411.529 1594.41L314.383 1693.11L231.106 1634.87C229.985 1634.09 229.709 1632.54 230.491 1631.42C231.288 1630.3 232.826 1630.02 233.946 1630.8L313.789 1686.63L407.996 1590.92C408.955 1589.95 410.529 1589.93 411.503 1590.9C412.452 1591.84 412.488 1593.36 411.597 1594.34Z" fill="#98CFF4"/>
<path d="M233.013 1746.04C233.013 1746.04 156.887 1707.94 157.997 1674.22C159.107 1640.51 114.351 1638.59 104.397 1618.31C94.4416 1598.03 104.235 1570.41 140.067 1590.2C175.895 1610 179.069 1608.56 200.892 1589.48C222.714 1570.4 262.148 1613.33 277.388 1635.97C292.628 1658.61 283.001 1608.54 309.358 1622.92C335.716 1637.3 347.917 1708.75 338.577 1761.54C329.242 1814.33 229.292 1789.59 216.418 1771.38C203.544 1753.17 235.692 1762.75 233.013 1746.04Z" fill="#98CFF4"/>
<path d="M156.553 1663.43C157.596 1666.63 158.132 1670.2 157.997 1674.22C156.887 1707.94 233.013 1746.04 233.013 1746.04C235.687 1762.75 203.545 1753.16 216.418 1771.37C229.292 1789.58 329.242 1814.32 338.577 1761.53C339.077 1758.7 339.505 1755.8 339.885 1752.87C287.843 1707.59 224.919 1677.11 156.553 1663.43Z" fill="#82C4E8"/>
<path d="M333.381 1777.45C333.407 1778.11 333.11 1778.76 332.526 1779.15C331.635 1779.75 330.431 1779.51 329.837 1778.63C329.211 1777.7 265.885 1685.13 117.051 1607.46C116.103 1606.97 115.728 1605.8 116.228 1604.85C116.723 1603.9 117.896 1603.53 118.844 1604.02C268.622 1682.18 332.432 1775.53 333.058 1776.46C333.256 1776.76 333.365 1777.11 333.381 1777.45Z" fill="#ACDAFF"/>
<path d="M161.317 1630.37L128.351 1633.76C127.288 1633.87 126.334 1633.1 126.224 1632.03C126.125 1630.98 126.892 1630.02 127.955 1629.91L156.48 1626.97L150.955 1604.68C150.695 1603.63 151.331 1602.59 152.373 1602.33C153.415 1602.08 154.468 1602.71 154.724 1603.75L161.317 1630.37Z" fill="#ACDAFF"/>
<path d="M217.268 1597.17C217.273 1597.23 217.273 1597.29 217.268 1597.35L213.943 1665.32L166.534 1674.15C165.482 1674.35 164.465 1673.65 164.272 1672.6C164.069 1671.54 164.773 1670.53 165.826 1670.34L210.216 1662.07L213.39 1597.16C213.442 1596.09 214.354 1595.26 215.423 1595.32C216.434 1595.37 217.226 1596.18 217.268 1597.17Z" fill="#ACDAFF"/>
<path d="M270.076 1634.99C270.076 1635.01 270.076 1635.05 270.076 1635.08L270.06 1710.64L203.268 1717.88C202.2 1718 201.246 1717.22 201.131 1716.16C201.038 1715.06 201.788 1714.14 202.851 1714.02L266.182 1707.16L266.198 1635.08C266.198 1634.01 267.068 1633.14 268.137 1633.14C269.179 1633.14 270.029 1633.96 270.076 1634.99Z" fill="#ACDAFF"/>
<path d="M312.95 1645.74C312.95 1645.76 312.95 1645.79 312.95 1645.81L313.335 1754.11L235.025 1767.62C233.967 1767.8 232.966 1767.09 232.784 1766.03C232.612 1764.98 233.31 1763.97 234.368 1763.79L309.447 1750.85L309.072 1645.83C309.067 1644.76 309.932 1643.89 311.005 1643.88C312.053 1643.88 312.908 1644.7 312.95 1645.74Z" fill="#ACDAFF"/>
<path d="M404.149 1735.3C404.149 1735.3 504.491 1693.09 505.908 1649.98C507.326 1606.86 564.595 1608.18 579.001 1583.13C593.407 1558.09 583.234 1522.02 535.851 1544.27C488.469 1566.51 484.539 1564.41 458.297 1538.23C432.054 1512.04 378.126 1563.52 356.783 1591.12C335.439 1618.73 351.93 1555.64 317.088 1571.78C282.246 1587.91 260.673 1678.06 268.153 1746.2C275.627 1814.35 405.244 1791.17 423.204 1769.02C441.149 1746.86 399.328 1756.4 404.149 1735.3Z" fill="#ACDAFF"/>
<path d="M508.655 1636.32C507.06 1640.32 506.075 1644.82 505.903 1649.98C504.486 1693.09 404.144 1735.3 404.144 1735.3C399.323 1756.4 441.149 1746.86 423.194 1769.02C405.239 1791.17 275.621 1814.34 268.142 1746.2C267.741 1742.54 267.439 1738.81 267.204 1735.03C337.415 1681.63 420.275 1648.02 508.655 1636.32Z" fill="#98CFF4"/>
<path d="M273.443 1766.95C273.349 1767.78 273.683 1768.64 274.391 1769.19C275.475 1770.03 277.034 1769.82 277.873 1768.74C278.743 1767.61 367.337 1654.81 563.782 1568.22C565.039 1567.67 565.612 1566.21 565.054 1564.95C564.502 1563.69 563.037 1563.13 561.781 1563.68C364.095 1650.81 274.824 1764.56 273.948 1765.71C273.651 1766.08 273.49 1766.51 273.443 1766.95Z" fill="#D2EDFF"/>
<path d="M505.356 1593.73L547.135 1600.84C548.485 1601.07 549.767 1600.16 549.997 1598.81C550.21 1597.47 549.314 1596.18 547.964 1595.95L511.814 1589.8L520.737 1561.82C521.159 1560.49 520.434 1559.11 519.126 1558.7C517.818 1558.28 516.421 1559 516.004 1560.31L505.356 1593.73Z" fill="#D2EDFF"/>
<path d="M436.756 1546.67C436.745 1546.74 436.74 1546.82 436.74 1546.9L435.265 1633.91L495.021 1649.17C496.35 1649.51 497.7 1648.71 498.038 1647.38C498.388 1646.05 497.575 1644.7 496.246 1644.36L440.295 1630.07L441.702 1546.98C441.723 1545.61 440.633 1544.48 439.263 1544.46C437.97 1544.44 436.896 1545.41 436.756 1546.67Z" fill="#D2EDFF"/>
<path d="M366.19 1590.49C366.185 1590.53 366.18 1590.57 366.18 1590.6L359.847 1687.02L444.469 1701.87C445.819 1702.1 447.106 1701.2 447.341 1699.86C447.55 1698.46 446.674 1697.22 445.329 1696.99L365.096 1682.9L371.131 1590.93C371.22 1589.56 370.188 1588.38 368.817 1588.29C367.493 1588.2 366.336 1589.18 366.19 1590.49Z" fill="#D2EDFF"/>
<path d="M310.578 1600.6C310.573 1600.63 310.573 1600.66 310.568 1600.69L300.973 1738.85L399.761 1762.67C401.095 1762.99 402.435 1762.17 402.758 1760.84C403.065 1759.51 402.257 1758.17 400.928 1757.85L306.216 1735.01L315.519 1601.04C315.613 1599.67 314.586 1598.48 313.216 1598.39C311.881 1598.3 310.724 1599.28 310.578 1600.6Z" fill="#D2EDFF"/>
<path d="M696.657 1606.92C696.657 1606.92 725.667 1521.05 699.555 1496.39C673.443 1471.72 705.846 1436.72 698.174 1413.93C690.496 1391.13 662.388 1377.58 650.129 1419.41C637.871 1461.23 634.394 1462.53 603.591 1464.45C572.783 1466.38 575.155 1528.41 580.601 1556.95C586.048 1585.49 555.792 1540.41 546.64 1571.04C537.488 1601.67 581.821 1664.84 628.453 1697.76C675.084 1730.68 732.114 1637.05 728.195 1613.63C724.275 1590.21 707.159 1621.56 696.657 1606.92Z" fill="#82C4E8"/>
<path d="M692.55 1487.14C694.166 1490.35 696.433 1493.44 699.555 1496.39C725.667 1521.05 696.657 1606.92 696.657 1606.92C707.164 1621.57 724.275 1590.22 728.195 1613.64C732.114 1637.05 675.079 1730.69 628.453 1697.77C625.951 1696 623.454 1694.13 620.968 1692.2C626.373 1618.95 651.109 1548.72 692.55 1487.14Z" fill="#6CB7D8"/>
<path d="M644.313 1705.91C644.782 1706.42 645.496 1706.69 646.231 1706.55C647.352 1706.34 648.086 1705.25 647.873 1704.13C647.649 1702.96 626.149 1585.49 680.479 1415.2C680.828 1414.11 680.229 1412.95 679.139 1412.61C678.05 1412.26 676.888 1412.86 676.544 1413.95C621.87 1585.32 643.594 1703.73 643.818 1704.91C643.886 1705.29 644.063 1705.63 644.313 1705.91Z" fill="#98CFF4"/>
<path d="M664.171 1465.71L691.648 1443.57C692.534 1442.86 692.675 1441.56 691.961 1440.67C691.247 1439.8 689.944 1439.64 689.058 1440.36L665.286 1459.51L652.751 1438.51C652.157 1437.52 650.896 1437.21 649.916 1437.79C648.936 1438.38 648.613 1439.65 649.202 1440.63L664.171 1465.71Z" fill="#98CFF4"/>
<path d="M596.977 1482.55C597.019 1482.6 597.066 1482.64 597.113 1482.68L650.572 1531.59L693.045 1502.73C693.988 1502.09 694.233 1500.8 693.592 1499.86C692.956 1498.9 691.664 1498.67 690.721 1499.31L650.948 1526.33L599.896 1479.63C599.052 1478.86 597.749 1478.92 596.977 1479.76C596.258 1480.56 596.269 1481.77 596.977 1482.55Z" fill="#98CFF4"/>
<path d="M585.396 1550.73C585.417 1550.75 585.438 1550.78 585.459 1550.8L642.108 1607.92L698.043 1563.33C698.934 1562.62 699.086 1561.32 698.372 1560.43C697.611 1559.52 696.36 1559.39 695.468 1560.1L642.431 1602.38L588.393 1547.9C587.59 1547.09 586.282 1547.08 585.469 1547.89C584.682 1548.66 584.656 1549.92 585.396 1550.73Z" fill="#98CFF4"/>
<path d="M561.025 1590.99C561.046 1591.02 561.061 1591.04 561.082 1591.06L641.967 1673.24L711.308 1624.75C712.241 1624.1 712.47 1622.81 711.819 1621.88C711.151 1620.95 709.874 1620.71 708.942 1621.36L642.462 1667.85L564.027 1588.16C563.224 1587.35 561.916 1587.34 561.108 1588.13C560.316 1588.91 560.285 1590.18 561.025 1590.99Z" fill="#98CFF4"/>
<path d="M579.663 1726.64C579.663 1726.64 503.537 1688.55 504.647 1654.83C505.757 1621.11 461.002 1619.2 451.047 1598.92C441.092 1578.64 450.885 1551.01 486.718 1570.81C522.545 1590.6 525.719 1589.16 547.542 1570.08C569.365 1551 608.799 1593.94 624.038 1616.58C639.273 1639.22 629.652 1589.14 656.009 1603.52C682.366 1617.9 694.567 1689.36 685.227 1742.15C675.893 1794.94 575.942 1770.19 563.068 1751.98C550.19 1733.76 582.337 1743.36 579.663 1726.64Z" fill="#98CFF4"/>
<path d="M503.198 1644.03C504.241 1647.24 504.778 1650.8 504.642 1654.83C503.532 1688.55 579.658 1726.64 579.658 1726.64C582.332 1743.36 550.19 1733.76 563.063 1751.97C575.937 1770.18 675.888 1794.93 685.222 1742.14C685.723 1739.3 686.15 1736.4 686.53 1733.47C634.494 1688.19 571.564 1657.71 503.198 1644.03Z" fill="#82C4E8"/>
<path d="M680.026 1758.06C680.057 1758.71 679.755 1759.36 679.171 1759.76C678.28 1760.36 677.076 1760.12 676.482 1759.23C675.856 1758.31 612.53 1665.73 463.696 1588.07C462.748 1587.58 462.373 1586.4 462.873 1585.45C463.368 1584.51 464.541 1584.14 465.489 1584.63C615.267 1662.78 679.077 1756.14 679.703 1757.07C679.906 1757.37 680.01 1757.71 680.026 1758.06Z" fill="#ACDAFF"/>
<path d="M507.962 1610.97L474.996 1614.37C473.933 1614.48 472.979 1613.71 472.869 1612.64C472.77 1611.58 473.537 1610.62 474.6 1610.51L503.125 1607.57L497.6 1585.29C497.34 1584.23 497.976 1583.19 499.018 1582.94C500.06 1582.68 501.113 1583.31 501.369 1584.35L507.962 1610.97Z" fill="#ACDAFF"/>
<path d="M563.913 1577.77C563.918 1577.83 563.918 1577.89 563.913 1577.95L560.588 1645.92L513.179 1654.76C512.127 1654.96 511.11 1654.26 510.917 1653.2C510.714 1652.15 511.418 1651.14 512.471 1650.94L556.861 1642.67L560.035 1577.77C560.087 1576.7 560.999 1575.87 562.068 1575.92C563.079 1575.97 563.871 1576.78 563.913 1577.77Z" fill="#ACDAFF"/>
<path d="M616.721 1615.6C616.721 1615.62 616.721 1615.65 616.721 1615.68L616.705 1691.24L549.913 1698.49C548.845 1698.6 547.891 1697.83 547.776 1696.77C547.683 1695.66 548.433 1694.74 549.496 1694.63L612.827 1687.77L612.843 1615.69C612.843 1614.62 613.713 1613.75 614.782 1613.75C615.824 1613.74 616.674 1614.56 616.721 1615.6Z" fill="#ACDAFF"/>
<path d="M659.6 1626.34C659.6 1626.37 659.6 1626.39 659.6 1626.42L659.986 1734.72L581.675 1748.22C580.617 1748.41 579.617 1747.7 579.434 1746.64C579.262 1745.58 579.961 1744.58 581.019 1744.4L656.098 1731.45L655.722 1626.44C655.717 1625.36 656.582 1624.49 657.656 1624.49C658.698 1624.48 659.553 1625.31 659.6 1626.34Z" fill="#ACDAFF"/>
<path d="M475.257 1748.15C475.257 1748.15 406.125 1739.15 397.921 1712.77C389.712 1686.39 354.578 1696.94 341.423 1683.93C328.268 1670.93 328.419 1646.92 361.458 1652.6C394.497 1658.28 396.566 1656.31 408.314 1635.68C420.062 1615.05 462.112 1637.66 479.989 1651.08C497.866 1664.49 476.951 1628.34 501.207 1632.38C525.464 1636.42 554.114 1688.41 561.088 1731.75C568.062 1775.1 484.091 1782.84 469.237 1772.21C454.383 1761.58 481.824 1760.35 475.257 1748.15Z" fill="#82C4E8"/>
<path d="M393.897 1704.8C395.565 1707 396.941 1709.61 397.921 1712.77C406.13 1739.15 475.257 1748.14 475.257 1748.14C481.824 1760.35 454.377 1761.57 469.232 1772.2C484.086 1782.83 568.056 1775.09 561.083 1731.74C560.707 1729.41 560.259 1727.06 559.764 1724.69C507.331 1703.66 450.458 1697.01 393.897 1704.8Z" fill="#6CB7D8"/>
<path d="M561.343 1745.46C561.541 1745.95 561.484 1746.54 561.135 1747C560.609 1747.7 559.613 1747.84 558.909 1747.31C558.18 1746.77 484.294 1692.19 348.282 1672.13C347.412 1672.01 346.812 1671.2 346.943 1670.33C347.068 1669.46 347.881 1668.86 348.746 1668.99C485.618 1689.17 560.082 1744.22 560.817 1744.77C561.062 1744.96 561.239 1745.2 561.343 1745.46Z" fill="#98CFF4"/>
<path d="M388.691 1677.95L364.1 1689.44C363.308 1689.81 362.36 1689.47 361.99 1688.68C361.63 1687.89 361.963 1686.94 362.756 1686.57L384.026 1676.62L373.758 1660.87C373.273 1660.12 373.487 1659.15 374.222 1658.67C374.957 1658.19 375.942 1658.4 376.422 1659.13L388.691 1677.95Z" fill="#98CFF4"/>
<path d="M423.043 1637.22C423.064 1637.27 423.079 1637.32 423.09 1637.37L438.799 1690.84L404.499 1710.42C403.738 1710.85 402.768 1710.59 402.33 1709.82C401.887 1709.06 402.158 1708.09 402.925 1707.65L435.041 1689.32L420.041 1638.26C419.796 1637.41 420.275 1636.53 421.12 1636.28C421.917 1636.06 422.746 1636.47 423.043 1637.22Z" fill="#98CFF4"/>
<path d="M474.063 1652.28C474.074 1652.3 474.079 1652.33 474.089 1652.35L494.395 1710.8L444.678 1734.37C443.886 1734.74 442.937 1734.4 442.562 1733.61C442.192 1732.78 442.525 1731.87 443.318 1731.49L490.46 1709.15L471.092 1653.39C470.806 1652.56 471.244 1651.66 472.072 1651.37C472.875 1651.09 473.751 1651.5 474.063 1652.28Z" fill="#98CFF4"/>
<path d="M510.12 1649.06C510.13 1649.08 510.136 1649.1 510.141 1649.12L539.563 1732.79L482.621 1764.3C481.855 1764.72 480.886 1764.44 480.458 1763.68C480.042 1762.91 480.312 1761.94 481.079 1761.52L535.674 1731.31L507.144 1650.18C506.852 1649.35 507.29 1648.44 508.113 1648.15C508.926 1647.87 509.807 1648.27 510.12 1649.06Z" fill="#98CFF4"/>
<path d="M750.794 1735.3C750.794 1735.3 851.135 1693.09 852.553 1649.98C853.971 1606.86 911.24 1608.18 925.646 1583.13C940.052 1558.09 929.878 1522.02 882.496 1544.27C835.114 1566.51 831.184 1564.41 804.941 1538.23C778.699 1512.04 724.77 1563.52 703.427 1591.12C682.084 1618.73 698.575 1555.64 663.733 1571.78C628.89 1587.91 607.318 1678.06 614.797 1746.2C622.271 1814.35 751.888 1791.17 769.849 1769.02C787.799 1746.86 745.973 1756.4 750.794 1735.3Z" fill="#ACDAFF"/>
<path d="M855.3 1636.32C853.705 1640.32 852.72 1644.82 852.548 1649.98C851.13 1693.09 750.789 1735.3 750.789 1735.3C745.968 1756.4 787.794 1746.86 769.839 1769.02C751.883 1791.17 622.266 1814.34 614.787 1746.2C614.385 1742.54 614.083 1738.81 613.849 1735.03C684.059 1681.63 766.92 1648.02 855.3 1636.32Z" fill="#98CFF4"/>
<path d="M620.087 1766.95C619.993 1767.78 620.327 1768.64 621.036 1769.19C622.12 1770.03 623.678 1769.82 624.518 1768.74C625.388 1767.61 713.981 1654.81 910.427 1568.22C911.683 1567.67 912.256 1566.21 911.699 1564.95C911.146 1563.69 909.682 1563.13 908.426 1563.68C710.74 1650.81 621.468 1764.56 620.593 1765.71C620.301 1766.08 620.134 1766.51 620.087 1766.95Z" fill="#D2EDFF"/>
<path d="M852.006 1593.73L893.785 1600.84C895.135 1601.07 896.417 1600.16 896.647 1598.81C896.86 1597.47 895.964 1596.18 894.614 1595.95L858.464 1589.8L867.386 1561.82C867.809 1560.49 867.084 1559.11 865.776 1558.7C864.468 1558.28 863.071 1559 862.654 1560.31L852.006 1593.73Z" fill="#D2EDFF"/>
<path d="M783.4 1546.67C783.39 1546.74 783.385 1546.82 783.385 1546.9L781.91 1633.91L841.665 1649.17C842.994 1649.51 844.344 1648.71 844.683 1647.38C845.032 1646.05 844.219 1644.7 842.89 1644.36L786.939 1630.07L788.346 1546.98C788.367 1545.61 787.278 1544.48 785.907 1544.46C784.62 1544.44 783.541 1545.41 783.4 1546.67Z" fill="#D2EDFF"/>
<path d="M712.84 1590.49C712.835 1590.53 712.83 1590.57 712.83 1590.6L706.497 1687.02L791.119 1701.87C792.469 1702.1 793.756 1701.2 793.991 1699.86C794.199 1698.46 793.324 1697.22 791.979 1696.99L711.746 1682.9L717.781 1590.93C717.87 1589.56 716.838 1588.38 715.467 1588.29C714.138 1588.2 712.986 1589.18 712.84 1590.49Z" fill="#D2EDFF"/>
<path d="M657.223 1600.6C657.218 1600.63 657.218 1600.66 657.212 1600.69L647.617 1738.85L746.405 1762.67C747.74 1762.99 749.079 1762.17 749.402 1760.84C749.71 1759.51 748.902 1758.17 747.573 1757.85L652.86 1735.01L662.164 1601.04C662.258 1599.67 661.231 1598.48 659.86 1598.39C658.531 1598.3 657.369 1599.28 657.223 1600.6Z" fill="#D2EDFF"/>
<path d="M903.688 1896.43H156.288L137.524 1725.76H922.452L903.688 1896.43Z" fill="#21B7B5"/>
<path d="M909.14 1846.82H150.835L152.253 1859.73H907.722L909.14 1846.82Z" fill="#80D4E5"/>
<path d="M914.17 1801.07H145.806L148.558 1826.1H911.418L914.17 1801.07Z" fill="#80D4E5"/>
<path d="M932.792 1713.96H125.792V1754.16H932.792V1713.96Z" fill="#80D4E5"/>
<path d="M1597.45 1935.16H962.703C917.781 1935.16 847.972 1901.38 853.184 1856.46L1047.05 507.029C1052.26 462.106 1092.9 425.685 1137.83 425.685L1733.72 402.455C1806.19 402.455 1849.69 462.101 1844.47 507.029L1688.22 1853.81C1683.01 1898.74 1642.37 1935.16 1597.45 1935.16Z" fill="#144182"/>
<path d="M1550.67 1911.54H915.936C871.014 1911.54 838.819 1875.13 844.031 1830.2L1000.28 483.413C1005.49 438.491 1046.14 402.069 1091.06 402.069H1725.8C1770.72 402.069 1802.92 438.486 1797.71 483.413L1641.46 1830.2C1636.24 1875.12 1595.6 1911.54 1550.67 1911.54Z" fill="#2099FF"/>
<path d="M1550.52 1883.3H922.644C888.453 1883.3 863.957 1855.59 867.923 1821.4L1022.67 487.593C1026.63 453.402 1057.57 425.69 1091.75 425.69H1719.63C1753.82 425.69 1778.31 453.407 1774.35 487.593L1619.6 1821.4C1615.64 1855.59 1584.71 1883.3 1550.52 1883.3Z" fill="#ACDAFF"/>
<path d="M1293.61 1849.74H1162.74C1147.59 1849.74 1136.63 1837.34 1138.38 1822.19C1140.14 1807.04 1153.98 1794.64 1169.13 1794.64H1300.01C1315.16 1794.64 1326.12 1807.04 1324.36 1822.19C1322.6 1837.34 1308.76 1849.74 1293.61 1849.74Z" fill="#2099FF"/>
<path d="M1120.09 489.354C1128.9 481.045 1130.03 467.952 1122.63 460.109C1115.23 452.267 1102.1 452.645 1093.29 460.954C1084.49 469.263 1083.35 482.357 1090.75 490.199C1098.15 498.041 1111.28 497.663 1120.09 489.354Z" fill="#2099FF"/>
<path d="M1170.2 483.709C1175.5 478.703 1176.19 470.814 1171.73 466.089C1167.27 461.364 1159.36 461.592 1154.05 466.598C1148.75 471.603 1148.06 479.492 1152.52 484.217C1156.98 488.942 1164.89 488.715 1170.2 483.709Z" fill="#2099FF"/>
<path d="M1592.95 1763.15H902.844L1045.89 530.211H1735.99L1592.95 1763.15Z" fill="white"/>
<path d="M1640.45 720.45H1097.89C1081.22 720.45 1069.28 706.94 1071.22 690.272L1082.18 595.81C1084.11 579.142 1099.19 565.632 1115.85 565.632H1658.41C1675.08 565.632 1687.02 579.142 1685.09 595.81L1674.13 690.272C1672.19 706.94 1657.11 720.45 1640.45 720.45Z" fill="#E6F2FF"/>
<path d="M1145.58 614.456L1146.39 607.424H1147.47L1149.97 612.557H1149.41L1153.05 607.424H1154.13L1153.32 614.456H1152.08L1152.66 609.363H1152.92L1149.84 613.652H1149.25L1147.12 609.363H1147.42L1146.83 614.456H1145.58ZM1157.53 614.526C1156.98 614.526 1156.5 614.409 1156.1 614.175C1155.69 613.934 1155.39 613.605 1155.19 613.19C1154.99 612.775 1154.92 612.303 1154.98 611.774C1155.04 611.238 1155.22 610.766 1155.52 610.357C1155.81 609.942 1156.19 609.617 1156.65 609.383C1157.11 609.149 1157.62 609.031 1158.17 609.031C1158.73 609.031 1159.21 609.149 1159.61 609.383C1160.03 609.617 1160.33 609.939 1160.52 610.347C1160.73 610.756 1160.8 611.231 1160.73 611.774C1160.67 612.303 1160.49 612.775 1160.19 613.19C1159.9 613.605 1159.53 613.934 1159.06 614.175C1158.6 614.409 1158.09 614.526 1157.53 614.526ZM1157.66 613.451C1157.97 613.451 1158.25 613.384 1158.51 613.25C1158.77 613.117 1158.98 612.922 1159.14 612.668C1159.31 612.413 1159.42 612.115 1159.46 611.774C1159.5 611.426 1159.46 611.128 1159.35 610.88C1159.24 610.625 1159.08 610.431 1158.85 610.297C1158.62 610.163 1158.36 610.096 1158.06 610.096C1157.75 610.096 1157.46 610.163 1157.2 610.297C1156.95 610.431 1156.74 610.625 1156.57 610.88C1156.4 611.128 1156.29 611.426 1156.25 611.774C1156.21 612.115 1156.25 612.413 1156.36 612.668C1156.47 612.922 1156.64 613.117 1156.86 613.25C1157.09 613.384 1157.35 613.451 1157.66 613.451ZM1165.32 609.031C1165.76 609.031 1166.13 609.115 1166.45 609.283C1166.77 609.45 1167.01 609.708 1167.17 610.056C1167.32 610.398 1167.37 610.84 1167.31 611.382L1166.95 614.456H1165.69L1166.02 611.543C1166.08 611.067 1166.01 610.712 1165.8 610.478C1165.61 610.244 1165.31 610.126 1164.9 610.126C1164.61 610.126 1164.34 610.187 1164.09 610.307C1163.85 610.428 1163.65 610.609 1163.49 610.85C1163.35 611.084 1163.25 611.382 1163.21 611.744L1162.89 614.456H1161.63L1162.25 609.092H1163.46L1163.29 610.538L1163.13 610.096C1163.36 609.755 1163.66 609.494 1164.04 609.313C1164.42 609.125 1164.85 609.031 1165.32 609.031ZM1170.84 614.526C1170.32 614.526 1169.87 614.412 1169.47 614.185C1169.09 613.95 1168.8 613.629 1168.62 613.22C1168.43 612.812 1168.36 612.33 1168.43 611.774C1168.49 611.218 1168.67 610.736 1168.95 610.327C1169.23 609.919 1169.59 609.601 1170.03 609.373C1170.48 609.145 1170.96 609.031 1171.48 609.031C1171.93 609.031 1172.32 609.132 1172.66 609.333C1172.99 609.527 1173.24 609.825 1173.4 610.227C1173.56 610.629 1173.61 611.144 1173.54 611.774C1173.46 612.397 1173.3 612.912 1173.05 613.321C1172.8 613.723 1172.49 614.024 1172.11 614.225C1171.73 614.426 1171.31 614.526 1170.84 614.526ZM1171.12 613.451C1171.42 613.451 1171.7 613.384 1171.95 613.25C1172.21 613.117 1172.42 612.922 1172.59 612.668C1172.77 612.413 1172.88 612.115 1172.92 611.774C1172.96 611.426 1172.92 611.128 1172.8 610.88C1172.69 610.625 1172.52 610.431 1172.29 610.297C1172.07 610.163 1171.81 610.096 1171.51 610.096C1171.2 610.096 1170.92 610.163 1170.66 610.297C1170.41 610.431 1170.2 610.625 1170.02 610.88C1169.85 611.128 1169.74 611.426 1169.7 611.774C1169.66 612.115 1169.7 612.413 1169.81 612.668C1169.93 612.922 1170.1 613.117 1170.32 613.25C1170.55 613.384 1170.81 613.451 1171.12 613.451ZM1172.64 614.456L1172.79 613.19L1173 611.764L1173.07 610.337L1173.45 607.002H1174.71L1173.84 614.456H1172.64ZM1178.83 614.456L1178.96 613.371L1178.91 613.14L1179.13 611.241C1179.18 610.873 1179.1 610.588 1178.9 610.388C1178.7 610.18 1178.38 610.076 1177.92 610.076C1177.62 610.076 1177.32 610.123 1177.01 610.217C1176.71 610.311 1176.45 610.441 1176.22 610.609L1175.84 609.694C1176.15 609.473 1176.51 609.309 1176.92 609.202C1177.34 609.088 1177.77 609.031 1178.2 609.031C1178.98 609.031 1179.56 609.219 1179.94 609.594C1180.33 609.962 1180.48 610.535 1180.39 611.312L1180.03 614.456H1178.83ZM1177.13 614.526C1176.72 614.526 1176.38 614.459 1176.09 614.325C1175.8 614.185 1175.59 613.994 1175.45 613.753C1175.31 613.505 1175.26 613.227 1175.3 612.919C1175.33 612.618 1175.44 612.346 1175.61 612.105C1175.78 611.864 1176.04 611.673 1176.39 611.533C1176.74 611.392 1177.18 611.322 1177.73 611.322H1179.3L1179.2 612.156H1177.72C1177.29 612.156 1176.99 612.226 1176.83 612.366C1176.67 612.5 1176.57 612.668 1176.55 612.869C1176.52 613.096 1176.59 613.277 1176.76 613.411C1176.93 613.545 1177.17 613.612 1177.49 613.612C1177.8 613.612 1178.09 613.542 1178.35 613.401C1178.61 613.26 1178.82 613.053 1178.96 612.778L1179.08 613.532C1178.92 613.846 1178.68 614.091 1178.34 614.265C1178.01 614.439 1177.6 614.526 1177.13 614.526ZM1181.76 616.475C1181.5 616.475 1181.24 616.431 1180.99 616.344C1180.73 616.257 1180.53 616.137 1180.37 615.983L1180.98 615.059C1181.1 615.172 1181.23 615.263 1181.39 615.33C1181.54 615.397 1181.7 615.43 1181.87 615.43C1182.1 615.43 1182.29 615.373 1182.45 615.259C1182.6 615.146 1182.76 614.955 1182.91 614.687L1183.3 613.984L1183.42 613.833L1186.01 609.092H1187.23L1184.03 614.888C1183.81 615.29 1183.59 615.608 1183.35 615.842C1183.12 616.077 1182.87 616.241 1182.61 616.334C1182.35 616.428 1182.06 616.475 1181.76 616.475ZM1183.08 614.647L1181.29 609.092H1182.61L1184.05 613.723L1183.08 614.647ZM1190.94 614.456L1191.7 607.926L1192.2 608.519H1190.13L1190.26 607.424H1193.07L1192.25 614.456H1190.94ZM1194.79 614.456L1195.55 607.926L1196.06 608.519H1193.98L1194.11 607.424H1196.92L1196.11 614.456H1194.79ZM1198.29 614.526C1198.06 614.526 1197.87 614.449 1197.73 614.295C1197.59 614.134 1197.53 613.934 1197.56 613.692C1197.59 613.438 1197.69 613.237 1197.87 613.09C1198.05 612.936 1198.25 612.859 1198.48 612.859C1198.71 612.859 1198.9 612.936 1199.04 613.09C1199.19 613.237 1199.25 613.438 1199.22 613.692C1199.19 613.934 1199.08 614.134 1198.9 614.295C1198.72 614.449 1198.52 614.526 1198.29 614.526ZM1202.8 614.556C1202.24 614.556 1201.75 614.416 1201.33 614.134C1200.92 613.853 1200.62 613.445 1200.42 612.909C1200.23 612.366 1200.18 611.71 1200.27 610.94C1200.36 610.17 1200.56 609.517 1200.88 608.981C1201.2 608.439 1201.6 608.027 1202.07 607.746C1202.56 607.464 1203.08 607.324 1203.64 607.324C1204.21 607.324 1204.7 607.464 1205.11 607.746C1205.52 608.027 1205.82 608.439 1206.02 608.981C1206.22 609.517 1206.27 610.17 1206.18 610.94C1206.09 611.71 1205.89 612.366 1205.56 612.909C1205.24 613.445 1204.84 613.853 1204.37 614.134C1203.89 614.416 1203.37 614.556 1202.8 614.556ZM1202.93 613.421C1203.26 613.421 1203.56 613.334 1203.82 613.16C1204.09 612.979 1204.31 612.705 1204.48 612.336C1204.67 611.968 1204.79 611.503 1204.86 610.94C1204.92 610.371 1204.91 609.905 1204.81 609.544C1204.72 609.175 1204.56 608.904 1204.34 608.73C1204.11 608.549 1203.84 608.459 1203.51 608.459C1203.19 608.459 1202.9 608.549 1202.63 608.73C1202.36 608.904 1202.14 609.175 1201.96 609.544C1201.78 609.905 1201.66 610.371 1201.59 610.94C1201.53 611.503 1201.54 611.968 1201.63 612.336C1201.73 612.705 1201.89 612.979 1202.11 613.16C1202.34 613.334 1202.62 613.421 1202.93 613.421ZM1209.61 614.556C1209.05 614.556 1208.56 614.416 1208.14 614.134C1207.72 613.853 1207.42 613.445 1207.23 612.909C1207.03 612.366 1206.98 611.71 1207.07 610.94C1207.16 610.17 1207.36 609.517 1207.68 608.981C1208 608.439 1208.4 608.027 1208.88 607.746C1209.36 607.464 1209.88 607.324 1210.44 607.324C1211.01 607.324 1211.5 607.464 1211.91 607.746C1212.32 608.027 1212.63 608.439 1212.82 608.981C1213.02 609.517 1213.08 610.17 1212.99 610.94C1212.9 611.71 1212.69 612.366 1212.36 612.909C1212.05 613.445 1211.65 613.853 1211.17 614.134C1210.69 614.416 1210.17 614.556 1209.61 614.556ZM1209.74 613.421C1210.07 613.421 1210.36 613.334 1210.63 613.16C1210.89 612.979 1211.11 612.705 1211.29 612.336C1211.47 611.968 1211.6 611.503 1211.66 610.94C1211.73 610.371 1211.71 609.905 1211.61 609.544C1211.52 609.175 1211.36 608.904 1211.14 608.73C1210.92 608.549 1210.64 608.459 1210.31 608.459C1210 608.459 1209.7 608.549 1209.43 608.73C1209.17 608.904 1208.94 609.175 1208.76 609.544C1208.58 609.905 1208.46 610.371 1208.4 610.94C1208.33 611.503 1208.34 611.968 1208.44 612.336C1208.54 612.705 1208.7 612.979 1208.92 613.16C1209.15 613.334 1209.42 613.421 1209.74 613.421ZM1215.77 614.456L1219.77 607.424H1221.06L1223.44 614.456H1222.07L1220.06 608.117H1220.59L1217.12 614.456H1215.77ZM1217.42 612.829L1217.9 611.804H1221.72L1221.95 612.829H1217.42ZM1224.34 614.456L1225.16 607.424H1226.24L1228.74 612.557H1228.17L1231.81 607.424H1232.89L1232.09 614.456H1230.85L1231.43 609.363H1231.69L1228.6 613.652H1228.02L1225.88 609.363H1226.19L1225.6 614.456H1224.34Z" fill="#ACDAFF"/>
<path d="M1171.52 890.152H1048.03L1062.35 766.659H1185.85L1171.52 890.152Z" fill="#E6F2FF"/>
<path d="M1331.33 890.152H1207.83L1222.16 766.659H1345.66L1331.33 890.152Z" fill="#ACDAFF"/>
<path d="M1491.13 890.152H1367.63L1381.96 766.659H1505.46L1491.13 890.152Z" fill="#E6F2FF"/>
<path d="M1650.94 890.152H1527.44L1541.77 766.659H1665.27L1650.94 890.152Z" fill="#E6F2FF"/>
<path d="M1153.2 1048.08H1029.7L1044.03 924.583H1167.53L1153.2 1048.08Z" fill="#E6F2FF"/>
<path d="M1313.01 1048.08H1189.51L1203.84 924.583H1327.33L1313.01 1048.08Z" fill="#E6F2FF"/>
<path d="M1472.81 1048.08H1349.31L1363.64 924.583H1487.14L1472.81 1048.08Z" fill="#E6F2FF"/>
<path d="M1632.62 1048.08H1509.12L1523.45 924.583H1646.95L1632.62 1048.08Z" fill="#E6F2FF"/>
<path d="M1134.88 1206H1011.38L1025.71 1082.51H1149.2L1134.88 1206Z" fill="#E6F2FF"/>
<path d="M1294.68 1206H1171.19L1185.52 1082.51H1309.01L1294.68 1206Z" fill="#E6F2FF"/>
<path d="M1454.49 1206H1330.99L1345.32 1082.51H1468.82L1454.49 1206Z" fill="#E6F2FF"/>
<path d="M1614.29 1206H1490.8L1505.13 1082.51H1628.62L1614.29 1206Z" fill="#E6F2FF"/>
<path d="M1116.56 1363.93H993.063L1007.39 1240.43H1130.88L1116.56 1363.93Z" fill="#E6F2FF"/>
<path d="M1276.36 1363.93H1152.87L1167.19 1240.43H1290.69L1276.36 1363.93Z" fill="#E6F2FF"/>
<path d="M1436.17 1363.93H1312.67L1327 1240.43H1450.49L1436.17 1363.93Z" fill="#E6F2FF"/>
<path d="M1595.97 1363.93H1472.47L1486.8 1240.43H1610.3L1595.97 1363.93Z" fill="#E6F2FF"/>
<path d="M1086.15 1619.34C1087.28 1609.66 1096.07 1601.78 1105.75 1601.78H1217.34C1227.82 1601.78 1237.53 1595.77 1242.66 1586.08C1247.79 1576.4 1246.91 1565.77 1240.36 1558.36L1197.04 1509.35C1192.8 1504.55 1186.72 1501.91 1179.92 1501.91H1044.19C1036.73 1501.91 1030.62 1497.17 1028.98 1490.13L1023.23 1465.43C1021.96 1459.99 1023.46 1454.18 1027.34 1449.48C1031.23 1444.78 1036.76 1442.09 1042.52 1442.09H1229.74C1234.39 1442.09 1238.56 1443.89 1241.49 1447.15L1311.58 1525.31C1312.18 1521.87 1312.88 1518.44 1313.58 1515.04L1247.67 1441.55C1243.43 1436.82 1237.38 1434.22 1230.65 1434.22H1043.43C1035.08 1434.22 1027.07 1438.12 1021.45 1444.92C1015.82 1451.73 1013.65 1460.15 1015.49 1468.03L1021.23 1492.72C1023.61 1502.93 1032.47 1509.78 1043.27 1509.78H1179C1183.69 1509.78 1187.89 1511.61 1190.82 1514.93L1234.14 1563.93C1239.55 1570.05 1238.5 1577.83 1235.72 1583.07C1232.95 1588.32 1226.89 1593.91 1218.24 1593.91H1106.65C1092.62 1593.91 1079.89 1605.32 1078.26 1619.35L1075.26 1645.23C1073.64 1659.26 1083.72 1670.66 1097.75 1670.66H1221.04C1230.73 1670.66 1237.69 1678.55 1236.53 1688.53C1235.41 1698.21 1226.61 1706.09 1216.93 1706.09H970.292L969.38 1713.96H1216.02C1230.04 1713.96 1242.78 1702.55 1244.44 1688.23C1246.06 1674.2 1235.98 1662.79 1221.95 1662.79H1098.66C1088.97 1662.79 1082.01 1654.91 1083.13 1645.23L1086.15 1619.34Z" fill="#E6F2FF"/>
<path d="M1357.42 1461.96C1355.09 1482.04 1312.56 1535.33 1312.56 1535.33C1312.56 1535.33 1282.4 1482.04 1284.73 1461.96C1287.05 1441.88 1305.22 1425.61 1325.29 1425.61C1345.37 1425.61 1359.75 1441.88 1357.42 1461.96Z" fill="#ACDAFF"/>
<path d="M1333.88 1473.73C1342.19 1465.89 1343.26 1453.53 1336.28 1446.13C1329.3 1438.73 1316.91 1439.09 1308.6 1446.93C1300.29 1454.77 1299.21 1467.13 1306.19 1474.53C1313.17 1481.93 1325.57 1481.57 1333.88 1473.73Z" fill="white"/>
<path d="M1005.47 1731C1018.46 1718.75 1020.14 1699.45 1009.23 1687.88C998.317 1676.32 978.946 1676.88 965.962 1689.13C952.978 1701.38 951.297 1720.69 962.208 1732.25C973.119 1743.81 992.489 1743.26 1005.47 1731Z" fill="#ACDAFF"/>
<path d="M995.916 1720.87C1002.62 1714.55 1003.48 1704.59 997.852 1698.62C992.219 1692.65 982.221 1692.94 975.52 1699.26C968.818 1705.58 967.951 1715.55 973.584 1721.52C979.216 1727.49 989.214 1727.2 995.916 1720.87Z" fill="white"/>
<path d="M1577.77 1205.12C1577.77 1205.12 1518.05 1028.34 1571.8 977.573C1625.56 926.803 1558.84 854.747 1574.64 807.813C1590.45 760.879 1648.32 732.995 1673.55 819.097C1698.78 905.199 1705.93 907.863 1769.36 911.829C1832.78 915.795 1827.91 1043.49 1816.69 1102.25C1805.47 1161 1867.77 1068.19 1886.6 1131.26C1905.44 1194.32 1814.18 1324.37 1718.18 1392.15C1622.18 1459.92 1504.77 1267.16 1512.84 1218.95C1520.91 1170.73 1556.14 1235.27 1577.77 1205.12Z" fill="#82C4E8"/>
<path d="M1586.22 958.528C1582.89 965.127 1578.23 971.501 1571.8 977.573C1518.05 1028.34 1577.77 1205.12 1577.77 1205.12C1556.14 1235.27 1520.91 1170.73 1512.85 1218.94C1504.78 1267.15 1622.19 1459.92 1718.19 1392.14C1723.34 1388.5 1728.48 1384.65 1733.59 1380.67C1722.46 1229.88 1671.53 1085.32 1586.22 958.528Z" fill="#6CB7D8"/>
<path d="M1685.53 1408.9C1684.57 1409.97 1683.09 1410.51 1681.58 1410.22C1679.27 1409.78 1677.76 1407.55 1678.2 1405.24C1678.66 1402.84 1722.93 1161 1611.08 810.429C1610.36 808.194 1611.59 805.791 1613.83 805.087C1616.07 804.368 1618.47 805.608 1619.18 807.844C1731.73 1160.64 1687.01 1404.43 1686.55 1406.84C1686.4 1407.65 1686.03 1408.34 1685.53 1408.9Z" fill="#98CFF4"/>
<path d="M1644.65 914.414L1588.08 868.83C1586.25 867.36 1585.96 864.681 1587.44 862.852C1588.91 861.054 1591.59 860.736 1593.42 862.211L1642.36 901.645L1668.15 858.422C1669.37 856.379 1671.97 855.743 1673.98 856.947C1676 858.151 1676.66 860.762 1675.46 862.779L1644.65 914.414Z" fill="#98CFF4"/>
<path d="M1782.98 949.074C1782.89 949.173 1782.8 949.267 1782.7 949.361L1672.63 1050.04L1585.2 990.634C1583.25 989.316 1582.75 986.668 1584.07 984.724C1585.39 982.764 1588.04 982.28 1589.98 983.598L1671.86 1039.22L1776.96 943.08C1778.69 941.496 1781.38 941.616 1782.97 943.351C1784.46 944.983 1784.44 947.469 1782.98 949.074Z" fill="#98CFF4"/>
<path d="M1806.82 1089.44C1806.78 1089.49 1806.73 1089.54 1806.69 1089.58L1690.06 1207.18L1574.91 1115.38C1573.07 1113.92 1572.77 1111.24 1574.23 1109.41C1575.8 1107.54 1578.37 1107.27 1580.21 1108.73L1689.4 1195.77L1800.65 1083.6C1802.3 1081.93 1804.99 1081.92 1806.66 1083.57C1808.28 1085.18 1808.34 1087.77 1806.82 1089.44Z" fill="#98CFF4"/>
<path d="M1856.99 1172.34C1856.95 1172.38 1856.91 1172.42 1856.87 1172.46L1690.35 1341.65L1547.6 1241.83C1545.68 1240.48 1545.2 1237.83 1546.55 1235.91C1547.92 1234 1550.55 1233.51 1552.47 1234.85L1689.33 1330.56L1850.81 1166.5C1852.45 1164.82 1855.15 1164.8 1856.82 1166.45C1858.45 1168.06 1858.51 1170.66 1856.99 1172.34Z" fill="#98CFF4"/>
<path d="M1553.19 1597.71C1553.19 1597.71 1422.7 1532.41 1424.6 1474.62C1426.5 1416.82 1349.79 1413.53 1332.72 1378.77C1315.66 1344 1332.45 1296.66 1393.87 1330.58C1455.28 1364.51 1460.72 1362.05 1498.13 1329.34C1535.53 1296.62 1603.13 1370.23 1629.25 1409.03C1655.36 1447.84 1638.87 1362 1684.04 1386.65C1729.22 1411.31 1750.13 1533.77 1734.13 1624.26C1718.13 1714.75 1546.8 1672.33 1524.73 1641.12C1502.68 1609.91 1557.78 1626.36 1553.19 1597.71Z" fill="#98CFF4"/>
<path d="M1422.13 1456.11C1423.91 1461.61 1424.83 1467.72 1424.6 1474.62C1422.7 1532.41 1553.19 1597.71 1553.19 1597.71C1557.77 1626.36 1502.67 1609.92 1524.74 1641.13C1546.8 1672.35 1718.13 1714.77 1734.14 1624.28C1735 1619.42 1735.73 1614.45 1736.38 1609.43C1647.17 1531.8 1539.31 1479.56 1422.13 1456.11Z" fill="#82C4E8"/>
<path d="M1725.22 1651.56C1725.27 1652.68 1724.76 1653.79 1723.75 1654.47C1722.23 1655.49 1720.16 1655.09 1719.14 1653.56C1718.07 1651.97 1609.52 1493.29 1354.4 1360.17C1352.77 1359.32 1352.13 1357.3 1352.99 1355.68C1353.84 1354.05 1355.85 1353.42 1357.48 1354.27C1614.22 1488.24 1723.59 1648.25 1724.67 1649.85C1725.02 1650.38 1725.2 1650.97 1725.22 1651.56Z" fill="#ACDAFF"/>
<path d="M1430.29 1399.44L1373.78 1405.26C1371.96 1405.46 1370.32 1404.12 1370.14 1402.3C1369.96 1400.49 1371.28 1398.84 1373.1 1398.65L1422 1393.61L1412.53 1355.41C1412.08 1353.6 1413.17 1351.82 1414.95 1351.38C1416.74 1350.93 1418.54 1352.02 1418.98 1353.81L1430.29 1399.44Z" fill="#ACDAFF"/>
<path d="M1526.2 1342.53C1526.2 1342.64 1526.2 1342.74 1526.2 1342.85L1520.5 1459.35L1439.24 1474.5C1437.43 1474.83 1435.69 1473.65 1435.36 1471.84C1435.01 1470.02 1436.21 1468.29 1438.02 1467.96L1514.12 1453.78L1519.56 1342.52C1519.65 1340.69 1521.21 1339.28 1523.05 1339.36C1524.77 1339.45 1526.12 1340.83 1526.2 1342.53Z" fill="#ACDAFF"/>
<path d="M1616.72 1407.36C1616.72 1407.41 1616.72 1407.46 1616.72 1407.52L1616.69 1537.03L1502.2 1549.44C1500.37 1549.64 1498.73 1548.32 1498.53 1546.5C1498.37 1544.6 1499.65 1543.03 1501.47 1542.83L1610.03 1531.06L1610.06 1407.52C1610.06 1405.68 1611.55 1404.19 1613.39 1404.19C1615.18 1404.19 1616.64 1405.6 1616.72 1407.36Z" fill="#ACDAFF"/>
<path d="M1690.21 1425.78C1690.21 1425.83 1690.22 1425.87 1690.22 1425.92L1690.87 1611.56L1556.64 1634.71C1554.83 1635.02 1553.11 1633.81 1552.8 1632C1552.5 1630.18 1553.7 1628.46 1555.51 1628.15L1684.2 1605.96L1683.56 1425.95C1683.55 1424.11 1685.03 1422.62 1686.87 1422.61C1688.67 1422.6 1690.13 1424.01 1690.21 1425.78Z" fill="#ACDAFF"/>
<path d="M1893.68 1513.38C1893.68 1513.38 2005.33 1363.88 1970 1298.93C1934.67 1233.98 2020.45 1186.19 2020 1136.67C2019.56 1087.16 1973.21 1042.68 1922.48 1116.69C1871.76 1190.7 1864.13 1191.02 1802.61 1175.09C1741.1 1159.17 1706.08 1282.07 1698.5 1341.41C1690.92 1400.74 1660.52 1293.18 1623.03 1347.27C1585.55 1401.37 1631.92 1553.33 1702.13 1647.55C1772.34 1741.79 1943.79 1595 1951.1 1546.67C1958.41 1498.34 1904.88 1548.75 1893.68 1513.38Z" fill="#ACDAFF"/>
<path d="M1962.21 1276.35C1963.32 1283.65 1965.78 1291.17 1970 1298.93C2005.33 1363.88 1893.68 1513.38 1893.68 1513.38C1904.88 1548.75 1958.4 1498.34 1951.1 1546.68C1943.79 1595.01 1772.34 1741.79 1702.13 1647.56C1698.36 1642.5 1694.67 1637.25 1691.05 1631.87C1748.45 1491.99 1841.74 1370.39 1962.21 1276.35Z" fill="#98CFF4"/>
<path d="M1727.97 1673.63C1728.56 1674.94 1729.79 1675.92 1731.32 1676.11C1733.65 1676.41 1735.78 1674.76 1736.07 1672.43C1736.38 1670 1769.39 1426.37 1984.56 1127.85C1985.94 1125.94 1985.52 1123.28 1983.6 1121.91C1981.69 1120.54 1979.03 1120.97 1977.66 1122.88C1761.13 1423.29 1727.95 1668.91 1727.63 1671.36C1727.53 1672.16 1727.66 1672.94 1727.97 1673.63Z" fill="#D2EDFF"/>
<path d="M1920.36 1216.27L1988.28 1190.5C1990.48 1189.68 1991.58 1187.22 1990.75 1185.02C1989.91 1182.85 1987.46 1181.72 1985.27 1182.56L1926.5 1204.85L1915.39 1155.75C1914.87 1153.43 1912.6 1152.02 1910.31 1152.53C1908.01 1153.05 1906.58 1155.33 1907.09 1157.62L1920.36 1216.27Z" fill="#D2EDFF"/>
<path d="M1778.11 1206.27C1778.16 1206.39 1778.23 1206.51 1778.29 1206.63L1851.65 1336.51L1953.21 1307.19C1955.46 1306.53 1956.77 1304.17 1956.11 1301.92C1955.47 1299.64 1953.1 1298.36 1950.84 1299.01L1855.74 1326.46L1785.69 1202.44C1784.53 1200.4 1781.94 1199.68 1779.89 1200.83C1777.98 1201.92 1777.22 1204.29 1778.11 1206.27Z" fill="#D2EDFF"/>
<path d="M1711.87 1332.3C1711.89 1332.36 1711.92 1332.42 1711.95 1332.47L1786.29 1480.47L1924.26 1428.96C1926.46 1428.14 1927.58 1425.69 1926.76 1423.49C1925.85 1421.23 1923.49 1420.17 1921.29 1420.99L1790.47 1469.83L1719.55 1328.65C1718.5 1326.55 1715.94 1325.71 1713.84 1326.76C1711.79 1327.79 1710.94 1330.24 1711.87 1332.3Z" fill="#D2EDFF"/>
<path d="M1638.44 1395.52C1638.47 1395.57 1638.49 1395.62 1638.51 1395.67L1744.27 1608.2L1910.96 1557.64C1913.21 1556.96 1914.48 1554.59 1913.8 1552.34C1913.09 1550.1 1910.74 1548.82 1908.49 1549.5L1748.69 1597.97L1646.13 1391.89C1645.08 1389.79 1642.53 1388.93 1640.43 1389.97C1638.38 1390.99 1637.51 1393.45 1638.44 1395.52Z" fill="#D2EDFF"/>
<path d="M1524.61 1660.45H1853.34L1784.97 1985.89H1573.03L1524.61 1660.45Z" fill="#21B7B5"/>
<path d="M1825.09 1794.91H1544.61L1549.68 1828.95H1817.94L1825.09 1794.91Z" fill="#80D4E5"/>
<path d="M1814.85 1843.65H1551.86L1554.4 1860.66H1811.27L1814.85 1843.65Z" fill="#80D4E5"/>
<path d="M1862.58 1655.06H1514.73V1701.31H1862.58V1655.06Z" fill="#80D4E5"/>
</g>
<defs>
<filter id="filter0_d_39_5" x="0" y="0" width="2073.92" height="2082.38" filterUnits="userSpaceOnUse" color-interpolation-filters="sRGB">
<feFlood flood-opacity="0" result="BackgroundImageFix"/>
<feColorMatrix in="SourceAlpha" type="matrix" values="0 0 0 0 0 0 0 0 0 0 0 0 0 0 0 0 0 0 127 0" result="hardAlpha"/>
<feOffset dy="4"/>
<feGaussianBlur stdDeviation="2"/>
<feComposite in2="hardAlpha" operator="out"/>
<feColorMatrix type="matrix" values="0 0 0 0 0 0 0 0 0 0 0 0 0 0 0 0 0 0 0.25 0"/>
<feBlend mode="normal" in2="BackgroundImageFix" result="effect1_dropShadow_39_5"/>
<feBlend mode="normal" in="SourceGraphic" in2="effect1_dropShadow_39_5" result="shape"/>
</filter>
</defs>
</svg>
