<svg width="720" height="720" viewBox="0 0 720 720" fill="none" xmlns="http://www.w3.org/2000/svg">
<path d="M710 573.505V595.256H624.879V573.505H710ZM708.013 498.632L635.232 595.256H617.036V578.211L689.399 482.11H708.013V498.632ZM697.87 482.11V503.965H618.5V482.11H697.87Z" fill="url(#paint0_linear_107_4)"/>
<path d="M496.779 539.833V537.637C496.779 529.341 497.964 521.707 500.335 514.736C502.705 507.695 506.156 501.595 510.687 496.436C515.219 491.277 520.761 487.268 527.314 484.41C533.867 481.482 541.327 480.018 549.692 480.018C558.197 480.018 565.727 481.482 572.28 484.41C578.903 487.268 584.48 491.277 589.011 496.436C593.543 501.595 596.993 507.695 599.364 514.736C601.734 521.707 602.919 529.341 602.919 537.637V539.833C602.919 548.059 601.734 555.693 599.364 562.734C596.993 569.705 593.543 575.805 589.011 581.034C584.48 586.193 578.937 590.201 572.384 593.06C565.831 595.918 558.337 597.347 549.901 597.347C541.536 597.347 534.042 595.918 527.419 593.06C520.796 590.201 515.219 586.193 510.687 581.034C506.156 575.805 502.705 569.705 500.335 562.734C497.964 555.693 496.779 548.059 496.779 539.833ZM524.386 537.637V539.833C524.386 544.783 524.874 549.418 525.85 553.741C526.826 558.063 528.325 561.862 530.347 565.139C532.368 568.416 534.983 570.995 538.19 572.877C541.466 574.69 545.37 575.596 549.901 575.596C554.363 575.596 558.197 574.69 561.404 572.877C564.611 570.995 567.225 568.416 569.247 565.139C571.339 561.862 572.872 558.063 573.848 553.741C574.824 549.418 575.312 544.783 575.312 539.833V537.637C575.312 532.757 574.824 528.191 573.848 523.938C572.872 519.616 571.339 515.816 569.247 512.54C567.225 509.193 564.576 506.579 561.3 504.697C558.093 502.745 554.224 501.769 549.692 501.769C545.231 501.769 541.396 502.745 538.19 504.697C534.983 506.579 532.368 509.193 530.347 512.54C528.325 515.816 526.826 519.616 525.85 523.938C524.874 528.191 524.386 532.757 524.386 537.637Z" fill="url(#paint1_linear_107_4)"/>
<path d="M375.477 539.833V537.637C375.477 529.341 376.662 521.707 379.032 514.736C381.402 507.695 384.853 501.595 389.385 496.436C393.916 491.277 399.458 487.268 406.011 484.41C412.564 481.482 420.024 480.018 428.39 480.018C436.895 480.018 444.424 481.482 450.977 484.41C457.6 487.268 463.177 491.277 467.708 496.436C472.24 501.595 475.691 507.695 478.061 514.736C480.431 521.707 481.616 529.341 481.616 537.637V539.833C481.616 548.059 480.431 555.693 478.061 562.734C475.691 569.705 472.24 575.805 467.708 581.034C463.177 586.193 457.635 590.201 451.082 593.06C444.528 595.918 437.034 597.347 428.599 597.347C420.233 597.347 412.739 595.918 406.116 593.06C399.493 590.201 393.916 586.193 389.385 581.034C384.853 575.805 381.402 569.705 379.032 562.734C376.662 555.693 375.477 548.059 375.477 539.833ZM403.083 537.637V539.833C403.083 544.783 403.571 549.418 404.547 553.741C405.523 558.063 407.022 561.862 409.044 565.139C411.066 568.416 413.68 570.995 416.887 572.877C420.163 574.69 424.067 575.596 428.599 575.596C433.06 575.596 436.895 574.69 440.102 572.877C443.308 570.995 445.923 568.416 447.944 565.139C450.036 561.862 451.57 558.063 452.546 553.741C453.522 549.418 454.01 544.783 454.01 539.833V537.637C454.01 532.757 453.522 528.191 452.546 523.938C451.57 519.616 450.036 515.816 447.944 512.54C445.923 509.193 443.274 506.579 439.997 504.697C436.79 502.745 432.921 501.769 428.39 501.769C423.928 501.769 420.094 502.745 416.887 504.697C413.68 506.579 411.066 509.193 409.044 512.54C407.022 515.816 405.523 519.616 404.547 523.938C403.571 528.191 403.083 532.757 403.083 537.637Z" fill="url(#paint2_linear_107_4)"/>
<path d="M287.846 506.265V595.256H260.239V482.109H286.173L287.846 506.265ZM283.454 534.604H275.298C275.367 526.378 276.483 518.919 278.644 512.226C280.805 505.533 283.838 499.782 287.741 494.972C291.715 490.161 296.421 486.467 301.859 483.887C307.296 481.308 313.361 480.018 320.054 480.018C325.492 480.018 330.407 480.785 334.799 482.319C339.191 483.852 342.955 486.292 346.092 489.639C349.299 492.985 351.739 497.377 353.412 502.815C355.155 508.183 356.027 514.805 356.027 522.683V595.256H328.211V522.474C328.211 517.315 327.444 513.237 325.91 510.239C324.446 507.241 322.285 505.115 319.427 503.86C316.638 502.605 313.187 501.978 309.074 501.978C304.821 501.978 301.092 502.849 297.885 504.592C294.748 506.265 292.099 508.601 289.937 511.599C287.846 514.596 286.243 518.047 285.127 521.951C284.012 525.855 283.454 530.073 283.454 534.604Z" fill="url(#paint3_linear_107_4)"/>
<path d="M208.476 568.381V482.11H236.292V595.256H210.149L208.476 568.381ZM212.032 544.957L220.607 544.748C220.607 552.347 219.77 559.353 218.097 565.767C216.424 572.18 213.809 577.757 210.254 582.498C206.768 587.169 202.341 590.829 196.973 593.478C191.605 596.057 185.261 597.347 177.941 597.347C172.364 597.347 167.275 596.58 162.674 595.047C158.073 593.443 154.099 590.968 150.753 587.622C147.476 584.206 144.932 579.849 143.119 574.551C141.307 569.183 140.4 562.734 140.4 555.205V482.11H168.007V555.414C168.007 559.179 168.425 562.316 169.262 564.825C170.168 567.335 171.388 569.392 172.922 570.995C174.525 572.529 176.373 573.644 178.464 574.341C180.625 574.969 182.926 575.283 185.366 575.283C192.059 575.283 197.322 573.958 201.156 571.309C205.06 568.59 207.849 564.965 209.522 560.433C211.195 555.832 212.032 550.673 212.032 544.957Z" fill="url(#paint4_linear_107_4)"/>
<path d="M38.7571 443V595.256H10V443H38.7571ZM130.152 443L69.0828 517.246L34.156 554.577L29.032 526.657L53.2925 495.181L94.9118 443H130.152ZM98.1536 595.256L50.7828 523.938L71.3833 505.324L132.348 595.256H98.1536Z" fill="url(#paint5_linear_107_4)"/>
<path d="M327.023 195.211V98.6577H320.287V195.211H327.023Z" fill="#1BAAE1"/>
<path d="M332.636 88.5532C332.636 93.5137 328.615 97.5349 323.655 97.5349C318.694 97.5349 314.673 93.5137 314.673 88.5532C314.673 83.5928 318.694 79.5715 323.655 79.5715C328.615 79.5715 332.636 83.5928 332.636 88.5532Z" stroke="#1BAAE1" stroke-width="6"/>
<path d="M374.181 195.21V119.988H367.444V195.21H374.181Z" fill="#1BAAE1"/>
<path d="M379.795 111.007C379.795 115.967 375.774 119.988 370.814 119.988C365.853 119.988 361.832 115.967 361.832 111.007C361.832 106.046 365.853 102.025 370.814 102.025C375.774 102.025 379.795 106.046 379.795 111.007Z" stroke="#1BAAE1" stroke-width="6"/>
<path d="M364.079 242.359H449.405V235.622H364.079V242.359Z" fill="#218BBF"/>
<path d="M459.985 247.972C455.025 247.972 451.003 243.951 451.003 238.99C451.003 234.03 455.025 230.009 459.985 230.009C464.946 230.009 468.967 234.03 468.967 238.99C468.967 243.951 464.946 247.972 459.985 247.972Z" stroke="#218BBF" stroke-width="6"/>
<path d="M320.288 276.034V370.342H327.024V276.034H320.288Z" fill="#1971D7"/>
<path d="M314.674 380.297C314.674 375.336 318.696 371.315 323.656 371.315C328.616 371.315 332.638 375.336 332.638 380.297C332.638 385.257 328.616 389.278 323.656 389.278C318.696 389.278 314.674 385.257 314.674 380.297Z" stroke="#1971D7" stroke-width="6"/>
<path d="M370.813 64.9817C370.813 69.9422 366.792 73.9634 361.831 73.9634C356.871 73.9634 352.85 69.9422 352.85 64.9817C352.85 60.0212 356.871 56 361.831 56C366.792 56 370.813 60.0212 370.813 64.9817Z" stroke="#1BAAE1" stroke-width="6"/>
<path d="M365.2 91.9244V73.9622H358.463V89.6791L338.253 111.009V195.207H344.99V113.816L365.2 91.9244Z" fill="#1BAAE1"/>
<path d="M369.691 375.953V393.915H362.954V378.198L338.253 353.5V276.038H344.99V351.255L369.691 375.953Z" fill="#1971D7"/>
<path d="M375.304 404.018C375.304 399.058 371.283 395.037 366.323 395.037C361.362 395.037 357.341 399.058 357.341 404.018C357.341 408.979 361.362 413 366.323 413C371.283 413 375.304 408.979 375.304 404.018Z" stroke="#1971D7" stroke-width="6"/>
<path d="M498.81 204.19C498.81 209.15 494.789 213.171 489.828 213.171C484.868 213.171 480.847 209.15 480.847 204.19C480.847 199.229 484.868 195.208 489.828 195.208C494.789 195.208 498.81 199.229 498.81 204.19Z" stroke="#218BBF" stroke-width="6"/>
<path d="M480.284 207.557V200.821H443.794L425.268 219.345H364.076V226.08H428.741L447.162 207.557H480.284Z" fill="#218BBF"/>
<path d="M498.81 272.669C498.81 267.709 494.789 263.687 489.828 263.687C484.868 263.687 480.847 267.709 480.847 272.669C480.847 277.63 484.868 281.651 489.828 281.651C494.789 281.651 498.81 277.63 498.81 272.669Z" stroke="#218BBF" stroke-width="6"/>
<path d="M480.284 269.864V276.599H443.794L425.268 258.076H364.076V251.34H428.741L447.162 269.864H480.284Z" fill="#218BBF"/>
<path d="M212.5 122.736C212.5 89.5987 239.363 62.7358 272.5 62.7358H288.446C296.73 62.7358 303.446 69.4516 303.446 77.7358V391.264C303.446 399.548 296.73 406.264 288.446 406.264H272.5C239.363 406.264 212.5 379.401 212.5 346.264V122.736Z" fill="#153985"/>
<path d="M408.048 395.874C408.993 397.115 410.465 397.844 412.025 397.844H497.312C501.417 397.844 503.773 393.17 501.332 389.87L396.352 247.971C377.549 276.037 362.953 285.018 339.655 306.091L408.048 395.874Z" fill="url(#paint6_linear_107_4)"/>
<path d="M333.199 297.616C356.778 274.915 373.619 266.495 388.877 237.867L382.085 228.902C380.272 226.507 376.771 226.241 374.616 228.334L323.508 277.961C321.676 279.741 321.479 282.614 323.051 284.627L333.199 297.616Z" fill="url(#paint7_linear_107_4)"/>
<path d="M333.199 297.616C356.778 274.915 373.619 266.495 388.877 237.867L382.085 228.902C380.272 226.507 376.771 226.241 374.616 228.334L323.508 277.961C321.676 279.741 321.479 282.614 323.051 284.627L333.199 297.616Z" fill="#1CA2A1"/>
<path d="M339.655 306.091C362.953 285.018 377.549 276.037 396.352 247.971L388.877 237.867C373.619 266.495 356.778 274.915 333.199 297.616L339.655 306.091Z" fill="url(#paint8_linear_107_4)"/>
<path d="M500.898 85.1478C503.546 81.8791 501.22 77 497.013 77H418.846C417.391 77 416.008 77.6336 415.058 78.7355L295.109 217.891C295.109 217.891 278.267 240.906 273.214 258.868C268.162 276.83 266.478 289.179 266.478 289.179C266.478 289.179 265.392 313.846 267.6 329.033C269.966 345.302 272.867 354.859 278.828 370.57C279.105 371.299 279.408 372.049 279.734 372.816C279.734 372.816 278.963 362.139 279.951 355.415C281.05 347.936 282.614 343.85 285.565 336.891C289.792 326.922 292.941 321.855 299.6 313.316C307.894 302.681 313.788 298.27 324.301 289.179C345.073 271.217 376.511 238.66 376.511 238.66L500.898 85.1478Z" fill="url(#paint9_linear_107_4)"/>
<path d="M267.6 329.033C265.392 313.846 266.478 289.179 266.478 289.179C266.478 289.179 262.251 316.433 263.671 333.523C264.803 347.148 266.534 354.821 270.866 368.293C272.903 374.629 276.266 383.863 281.635 390.778C287.681 398.565 295.67 403.688 295.67 403.688C298.425 405.313 285.508 386.402 279.734 372.816C279.408 372.049 279.105 371.299 278.828 370.57C272.867 354.859 269.966 345.302 267.6 329.033Z" fill="#153985"/>
<path d="M273.214 258.868C278.267 240.906 295.109 217.891 295.109 217.891C295.109 217.891 272.515 240.741 263.671 258.868C256.065 274.456 252.46 292.547 251.881 301.528C251.303 310.509 249.378 351.203 265.916 375.622C282.454 400.042 295.67 403.688 295.67 403.688C295.67 403.688 287.681 398.565 281.635 390.778C276.266 383.863 272.903 374.629 270.866 368.293C266.534 354.821 264.803 347.148 263.671 333.523C262.251 316.433 266.478 289.179 266.478 289.179C266.478 289.179 268.162 276.83 273.214 258.868Z" fill="url(#paint10_linear_107_4)"/>
<defs>
<linearGradient id="paint0_linear_107_4" x1="619.036" y1="479.657" x2="622.418" y2="597.922" gradientUnits="userSpaceOnUse">
<stop stop-color="#153985"/>
<stop offset="1" stop-color="#1961B5"/>
</linearGradient>
<linearGradient id="paint1_linear_107_4" x1="499.063" y1="477.474" x2="502.249" y2="600.129" gradientUnits="userSpaceOnUse">
<stop stop-color="#153985"/>
<stop offset="1" stop-color="#1961B5"/>
</linearGradient>
<linearGradient id="paint2_linear_107_4" x1="377.76" y1="477.474" x2="380.946" y2="600.129" gradientUnits="userSpaceOnUse">
<stop stop-color="#153985"/>
<stop offset="1" stop-color="#1961B5"/>
</linearGradient>
<linearGradient id="paint3_linear_107_4" x1="262.3" y1="477.52" x2="265.705" y2="597.973" gradientUnits="userSpaceOnUse">
<stop stop-color="#153985"/>
<stop offset="1" stop-color="#1961B5"/>
</linearGradient>
<linearGradient id="paint4_linear_107_4" x1="142.463" y1="479.611" x2="145.865" y2="600.065" gradientUnits="userSpaceOnUse">
<stop stop-color="#153985"/>
<stop offset="1" stop-color="#1961B5"/>
</linearGradient>
<linearGradient id="paint5_linear_107_4" x1="12.6319" y1="439.699" x2="17.2856" y2="598.837" gradientUnits="userSpaceOnUse">
<stop stop-color="#153985"/>
<stop offset="1" stop-color="#1961B5"/>
</linearGradient>
<linearGradient id="paint6_linear_107_4" x1="400.005" y1="259.759" x2="440.416" y2="395.04" gradientUnits="userSpaceOnUse">
<stop offset="0.00367985" stop-color="#21BAB8"/>
<stop offset="1" stop-color="#1CA2A1"/>
</linearGradient>
<linearGradient id="paint7_linear_107_4" x1="400.005" y1="259.759" x2="440.416" y2="395.04" gradientUnits="userSpaceOnUse">
<stop offset="0.00367985" stop-color="#21BAB8"/>
<stop offset="1" stop-color="#1CA2A1"/>
</linearGradient>
<linearGradient id="paint8_linear_107_4" x1="400.005" y1="259.759" x2="440.416" y2="395.04" gradientUnits="userSpaceOnUse">
<stop stop-color="#21BAB8"/>
<stop offset="0.99632" stop-color="#1CA2A1"/>
</linearGradient>
<linearGradient id="paint9_linear_107_4" x1="376.322" y1="75.8774" x2="376.322" y2="403.786" gradientUnits="userSpaceOnUse">
<stop stop-color="#1CA2A1"/>
<stop offset="1" stop-color="#21BAB8"/>
</linearGradient>
<linearGradient id="paint10_linear_107_4" x1="379.502" y1="77" x2="379.502" y2="403.786" gradientUnits="userSpaceOnUse">
<stop stop-color="#1BC4CB"/>
<stop offset="0.846154" stop-color="#114293"/>
</linearGradient>
</defs>
</svg>
