<svg width="720" height="720" viewBox="0 0 720 720" fill="none" xmlns="http://www.w3.org/2000/svg">
<path d="M118.201 374.033L43.9007 495.282L20.9999 481.249L95.2998 360L118.201 374.033ZM190.983 418.634L106.119 447.958L60.0873 460.643L69.6318 435.908L104.312 422.681L162.92 401.436L190.983 418.634ZM91.2012 524.268L88.2799 444.357L113.769 439.587L118.432 540.954L91.2012 524.268Z" fill="url(#paint0_linear_56_784)"/>
<path d="M209.995 544.951L234.767 468.278L259.488 476.265L226.999 576.823L203.765 569.316L209.995 544.951ZM219.88 525.154L227.561 527.43C225.379 534.184 222.624 540.17 219.296 545.39C215.967 550.61 212.042 554.816 207.521 558.008C203.082 561.158 198.097 563.14 192.565 563.953C187.054 564.704 181.045 564.029 174.54 561.927C169.583 560.325 165.28 558.183 161.631 555.498C158.003 552.752 155.182 549.412 153.169 545.477C151.237 541.5 150.227 536.897 150.137 531.668C150.068 526.376 151.114 520.385 153.276 513.694L174.265 448.731L198.8 456.658L177.751 521.807C176.67 525.152 176.141 528.061 176.164 530.531C176.249 533.022 176.743 535.2 177.645 537.065C178.63 538.889 179.952 540.411 181.61 541.631C183.351 542.809 185.305 543.748 187.474 544.449C193.422 546.371 198.48 546.705 202.648 545.451C206.899 544.156 210.418 541.735 213.206 538.188C216.014 534.579 218.239 530.235 219.88 525.154Z" fill="url(#paint1_linear_56_784)"/>
<path d="M295.508 503.664L288.063 586.445L262.382 584.135L271.848 478.884L295.973 481.053L295.508 503.664ZM289.051 529.658L281.464 528.975C282.217 521.329 283.879 514.483 286.449 508.439C289.019 502.394 292.322 497.297 296.356 493.149C300.454 489.007 305.141 485.964 310.415 484.019C315.689 482.075 321.439 481.383 327.664 481.943C332.723 482.398 337.231 483.522 341.188 485.316C345.145 487.11 348.443 489.695 351.081 493.07C353.784 496.451 355.686 500.741 356.788 505.939C357.96 511.079 358.216 517.312 357.557 524.64L351.486 592.149L325.611 589.822L331.7 522.119C332.131 517.32 331.759 513.462 330.583 510.545C329.472 507.634 327.64 505.475 325.086 504.069C322.597 502.668 319.44 501.796 315.613 501.452C311.658 501.096 308.115 501.594 304.986 502.947C301.928 504.241 299.268 506.192 297.007 508.8C294.811 511.413 293.031 514.489 291.666 518.028C290.302 521.566 289.431 525.443 289.051 529.658Z" fill="url(#paint2_linear_56_784)"/>
<path d="M376.543 540.768L376.268 538.736C375.228 531.058 375.369 523.844 376.689 517.095C378.001 510.281 380.43 504.203 383.978 498.86C387.526 493.518 392.153 489.114 397.86 485.647C403.558 482.116 410.279 479.827 418.022 478.778C425.894 477.713 433.046 478.125 439.478 480.013C445.965 481.829 451.629 484.84 456.47 489.047C461.31 493.254 465.268 498.468 468.344 504.688C471.411 510.843 473.465 517.76 474.504 525.438L474.779 527.471C475.81 535.084 475.669 542.298 474.358 549.112C473.037 555.861 470.608 561.939 467.069 567.346C463.521 572.689 458.894 577.093 453.187 580.559C447.48 584.026 440.722 586.288 432.915 587.344C425.172 588.393 418.057 588.009 411.569 586.193C405.081 584.377 399.417 581.366 394.577 577.159C389.728 572.888 385.77 567.674 382.703 561.519C379.627 555.299 377.573 548.382 376.543 540.768ZM401.819 535.277L402.094 537.31C402.714 541.891 403.747 546.12 405.191 549.999C406.636 553.877 408.5 557.205 410.781 559.985C413.063 562.764 415.806 564.824 419.01 566.164C422.269 567.431 425.996 567.781 430.19 567.213C434.319 566.654 437.755 565.335 440.496 563.256C443.228 561.112 445.324 558.397 446.785 555.111C448.31 551.816 449.254 548.108 449.615 543.985C449.977 539.862 449.848 535.51 449.228 530.929L448.953 528.897C448.341 524.38 447.318 520.215 445.882 516.401C444.437 512.523 442.541 509.199 440.195 506.428C437.905 503.585 435.125 501.497 431.857 500.165C428.644 498.76 424.941 498.342 420.747 498.91C416.617 499.469 413.191 500.852 410.467 503.061C407.735 505.205 405.643 507.952 404.191 511.302C402.731 514.588 401.819 518.292 401.458 522.415C401.087 526.473 401.207 530.761 401.819 535.277Z" fill="url(#paint3_linear_56_784)"/>
<path d="M490.703 523.552L489.98 521.632C487.248 514.381 485.771 507.319 485.547 500.446C485.301 493.511 486.309 487.043 488.571 481.043C490.833 475.042 494.357 469.713 499.144 465.058C503.908 460.341 509.945 456.606 517.257 453.851C524.691 451.051 531.754 449.852 538.445 450.254C545.175 450.572 551.369 452.239 557.028 455.256C562.687 458.273 567.712 462.469 572.101 467.842C576.468 473.155 580.017 479.437 582.749 486.688L583.472 488.607C586.18 495.797 587.657 502.86 587.904 509.794C588.127 516.668 587.119 523.135 584.88 529.197C582.618 535.198 579.094 540.526 574.307 545.182C569.521 549.838 563.441 553.554 556.068 556.331C548.756 559.085 541.735 560.304 535.006 559.986C528.276 559.668 522.082 558.001 516.423 554.984C510.741 551.906 505.717 547.71 501.35 542.397C496.96 537.024 493.411 530.742 490.703 523.552ZM514.109 512.543L514.832 514.463C516.461 518.789 518.414 522.68 520.69 526.137C522.966 529.593 525.527 532.42 528.373 534.619C531.219 536.817 534.353 538.211 537.775 538.8C541.236 539.306 544.946 538.812 548.907 537.32C552.807 535.852 555.86 533.797 558.066 531.157C560.249 528.456 561.685 525.341 562.373 521.812C563.122 518.259 563.212 514.433 562.642 510.334C562.072 506.235 560.972 502.023 559.342 497.696L558.619 495.777C557.013 491.512 555.083 487.681 552.83 484.286C550.554 480.829 547.962 478.014 545.056 475.838C542.187 473.579 539.011 472.166 535.527 471.6C532.082 470.95 528.379 471.37 524.418 472.862C520.519 474.331 517.489 476.447 515.328 479.208C513.145 481.909 511.721 485.055 511.056 488.645C510.367 492.175 510.308 495.989 510.878 500.088C511.425 504.126 512.502 508.278 514.109 512.543Z" fill="url(#paint4_linear_56_784)"/>
<path d="M688.576 459.492L699.613 476.547L632.869 519.74L621.832 502.685L688.576 459.492ZM649.026 401.792L640.987 514.487L626.719 523.72L618.07 510.354L626.046 398.281L640.642 388.836L649.026 401.792ZM632.688 393.983L643.778 411.12L581.544 451.395L570.454 434.258L632.688 393.983Z" fill="url(#paint5_linear_56_784)"/>
<path d="M327.023 174.211V77.6577H320.287V174.211H327.023Z" fill="#1BAAE1"/>
<path d="M332.636 67.5532C332.636 72.5137 328.615 76.5349 323.655 76.5349C318.694 76.5349 314.673 72.5137 314.673 67.5532C314.673 62.5928 318.694 58.5715 323.655 58.5715C328.615 58.5715 332.636 62.5928 332.636 67.5532Z" stroke="#1BAAE1" stroke-width="6"/>
<path d="M374.181 174.21V98.9883H367.444V174.21H374.181Z" fill="#1BAAE1"/>
<path d="M379.795 90.0066C379.795 94.9671 375.774 98.9883 370.814 98.9883C365.853 98.9883 361.832 94.9671 361.832 90.0066C361.832 85.0461 365.853 81.0249 370.814 81.0249C375.774 81.0249 379.795 85.0461 379.795 90.0066Z" stroke="#1BAAE1" stroke-width="6"/>
<path d="M364.079 221.359H449.405V214.622H364.079V221.359Z" fill="#218BBF"/>
<path d="M459.985 226.972C455.025 226.972 451.003 222.951 451.003 217.99C451.003 213.03 455.025 209.009 459.985 209.009C464.946 209.009 468.967 213.03 468.967 217.99C468.967 222.951 464.946 226.972 459.985 226.972Z" stroke="#218BBF" stroke-width="6"/>
<path d="M320.288 255.034V349.342H327.024V255.034H320.288Z" fill="#1971D7"/>
<path d="M314.674 359.297C314.674 354.336 318.696 350.315 323.656 350.315C328.616 350.315 332.638 354.336 332.638 359.297C332.638 364.257 328.616 368.278 323.656 368.278C318.696 368.278 314.674 364.257 314.674 359.297Z" stroke="#1971D7" stroke-width="6"/>
<path d="M370.813 43.9817C370.813 48.9422 366.792 52.9634 361.831 52.9634C356.871 52.9634 352.85 48.9422 352.85 43.9817C352.85 39.0212 356.871 35 361.831 35C366.792 35 370.813 39.0212 370.813 43.9817Z" stroke="#1BAAE1" stroke-width="6"/>
<path d="M365.2 70.9244V52.9622H358.463V68.6791L338.253 90.0093V174.207H344.99V92.8159L365.2 70.9244Z" fill="#1BAAE1"/>
<path d="M369.691 354.953V372.915H362.954V357.198L338.253 332.5V255.038H344.99V330.255L369.691 354.953Z" fill="#1971D7"/>
<path d="M375.304 383.018C375.304 378.058 371.283 374.037 366.323 374.037C361.362 374.037 357.341 378.058 357.341 383.018C357.341 387.979 361.362 392 366.323 392C371.283 392 375.304 387.979 375.304 383.018Z" stroke="#1971D7" stroke-width="6"/>
<path d="M498.81 183.19C498.81 188.15 494.789 192.171 489.828 192.171C484.868 192.171 480.847 188.15 480.847 183.19C480.847 178.229 484.868 174.208 489.828 174.208C494.789 174.208 498.81 178.229 498.81 183.19Z" stroke="#218BBF" stroke-width="6"/>
<path d="M480.284 186.557V179.821H443.794L425.268 198.345H364.076V205.08H428.741L447.162 186.557H480.284Z" fill="#218BBF"/>
<path d="M498.81 251.669C498.81 246.709 494.789 242.687 489.828 242.687C484.868 242.687 480.847 246.709 480.847 251.669C480.847 256.63 484.868 260.651 489.828 260.651C494.789 260.651 498.81 256.63 498.81 251.669Z" stroke="#218BBF" stroke-width="6"/>
<path d="M480.284 248.864V255.599H443.794L425.268 237.076H364.076V230.34H428.741L447.162 248.864H480.284Z" fill="#218BBF"/>
<path d="M212.5 101.736C212.5 68.5987 239.363 41.7358 272.5 41.7358H288.446C296.73 41.7358 303.446 48.4516 303.446 56.7358V370.264C303.446 378.548 296.73 385.264 288.446 385.264H272.5C239.363 385.264 212.5 358.401 212.5 325.264V101.736Z" fill="#153985"/>
<path d="M408.048 374.874C408.993 376.115 410.465 376.844 412.025 376.844H497.312C501.417 376.844 503.773 372.17 501.332 368.87L396.352 226.971C377.549 255.037 362.953 264.018 339.655 285.091L408.048 374.874Z" fill="url(#paint6_linear_56_784)"/>
<path d="M333.199 276.616C356.778 253.915 373.619 245.495 388.877 216.867L382.085 207.902C380.272 205.507 376.771 205.241 374.616 207.334L323.508 256.961C321.676 258.741 321.479 261.614 323.051 263.627L333.199 276.616Z" fill="url(#paint7_linear_56_784)"/>
<path d="M333.199 276.616C356.778 253.915 373.619 245.495 388.877 216.867L382.085 207.902C380.272 205.507 376.771 205.241 374.616 207.334L323.508 256.961C321.676 258.741 321.479 261.614 323.051 263.627L333.199 276.616Z" fill="#1CA2A1"/>
<path d="M339.655 285.091C362.953 264.018 377.549 255.037 396.352 226.971L388.877 216.867C373.619 245.495 356.778 253.915 333.199 276.616L339.655 285.091Z" fill="url(#paint8_linear_56_784)"/>
<path d="M500.898 64.1478C503.546 60.8791 501.22 56 497.013 56H418.846C417.391 56 416.008 56.6336 415.058 57.7355L295.109 196.891C295.109 196.891 278.267 219.906 273.214 237.868C268.162 255.83 266.478 268.179 266.478 268.179C266.478 268.179 265.392 292.846 267.6 308.033C269.966 324.302 272.867 333.859 278.828 349.57C279.105 350.299 279.408 351.049 279.734 351.816C279.734 351.816 278.963 341.139 279.951 334.415C281.05 326.936 282.614 322.85 285.565 315.891C289.792 305.922 292.941 300.855 299.6 292.316C307.894 281.681 313.788 277.27 324.301 268.179C345.073 250.217 376.511 217.66 376.511 217.66L500.898 64.1478Z" fill="url(#paint9_linear_56_784)"/>
<path d="M267.6 308.033C265.392 292.846 266.478 268.179 266.478 268.179C266.478 268.179 262.251 295.433 263.671 312.523C264.803 326.148 266.534 333.821 270.866 347.293C272.903 353.629 276.266 362.863 281.635 369.778C287.681 377.565 295.67 382.688 295.67 382.688C298.425 384.313 285.508 365.402 279.734 351.816C279.408 351.049 279.105 350.299 278.828 349.57C272.867 333.859 269.966 324.302 267.6 308.033Z" fill="#153985"/>
<path d="M273.214 237.868C278.267 219.906 295.109 196.891 295.109 196.891C295.109 196.891 272.515 219.741 263.671 237.868C256.065 253.456 252.46 271.547 251.881 280.528C251.303 289.509 249.378 330.203 265.916 354.622C282.454 379.042 295.67 382.688 295.67 382.688C295.67 382.688 287.681 377.565 281.635 369.778C276.266 362.863 272.903 353.629 270.866 347.293C266.534 333.821 264.803 326.148 263.671 312.523C262.251 295.433 266.478 268.179 266.478 268.179C266.478 268.179 268.162 255.83 273.214 237.868Z" fill="url(#paint10_linear_56_784)"/>
<defs>
<linearGradient id="paint0_linear_56_784" x1="139.22" y1="399.03" x2="50.5242" y2="518.766" gradientUnits="userSpaceOnUse">
<stop stop-color="#153985"/>
<stop offset="0.971337" stop-color="#1961B5"/>
</linearGradient>
<linearGradient id="paint1_linear_56_784" x1="214.999" y1="470.109" x2="171.35" y2="574.131" gradientUnits="userSpaceOnUse">
<stop stop-color="#153985"/>
<stop offset="0.971337" stop-color="#1961B5"/>
</linearGradient>
<linearGradient id="paint2_linear_56_784" x1="316.425" y1="488.783" x2="296.83" y2="599.876" gradientUnits="userSpaceOnUse">
<stop stop-color="#153985"/>
<stop offset="0.971337" stop-color="#1961B5"/>
</linearGradient>
<linearGradient id="paint3_linear_56_784" x1="419.842" y1="486.566" x2="426.333" y2="601.302" gradientUnits="userSpaceOnUse">
<stop stop-color="#153985"/>
<stop offset="0.971337" stop-color="#1961B5"/>
</linearGradient>
<linearGradient id="paint4_linear_56_784" x1="520.774" y1="461.034" x2="552.777" y2="571.408" gradientUnits="userSpaceOnUse">
<stop stop-color="#153985"/>
<stop offset="0.971337" stop-color="#1961B5"/>
</linearGradient>
<linearGradient id="paint5_linear_56_784" x1="610.374" y1="417.568" x2="662.349" y2="515.367" gradientUnits="userSpaceOnUse">
<stop stop-color="#153985"/>
<stop offset="0.971337" stop-color="#1961B5"/>
</linearGradient>
<linearGradient id="paint6_linear_56_784" x1="400.005" y1="238.759" x2="440.416" y2="374.04" gradientUnits="userSpaceOnUse">
<stop offset="0.00367985" stop-color="#21BAB8"/>
<stop offset="1" stop-color="#1CA2A1"/>
</linearGradient>
<linearGradient id="paint7_linear_56_784" x1="400.005" y1="238.759" x2="440.416" y2="374.04" gradientUnits="userSpaceOnUse">
<stop offset="0.00367985" stop-color="#21BAB8"/>
<stop offset="1" stop-color="#1CA2A1"/>
</linearGradient>
<linearGradient id="paint8_linear_56_784" x1="400.005" y1="238.759" x2="440.416" y2="374.04" gradientUnits="userSpaceOnUse">
<stop stop-color="#21BAB8"/>
<stop offset="0.99632" stop-color="#1CA2A1"/>
</linearGradient>
<linearGradient id="paint9_linear_56_784" x1="376.322" y1="54.8774" x2="376.322" y2="382.786" gradientUnits="userSpaceOnUse">
<stop stop-color="#1CA2A1"/>
<stop offset="1" stop-color="#21BAB8"/>
</linearGradient>
<linearGradient id="paint10_linear_56_784" x1="379.502" y1="56" x2="379.502" y2="382.786" gradientUnits="userSpaceOnUse">
<stop stop-color="#1BC4CB"/>
<stop offset="0.846154" stop-color="#114293"/>
</linearGradient>
</defs>
</svg>
