<svg width="1920" height="520" viewBox="0 0 1920 520" fill="none" xmlns="http://www.w3.org/2000/svg">
<path d="M1906.85 366.423V409.827H1736.99V366.423H1906.85ZM1902.89 217.013L1757.65 409.827H1721.34V375.813L1865.74 184.043H1902.89V217.013ZM1882.65 184.043V227.656H1724.26V184.043H1882.65Z" fill="url(#paint0_linear_57_2)"/>
<path d="M1481.37 299.23V294.848C1481.37 278.294 1483.73 263.061 1488.46 249.149C1493.19 235.098 1500.08 222.926 1509.12 212.631C1518.16 202.337 1529.22 194.338 1542.3 188.634C1555.38 182.791 1570.26 179.87 1586.96 179.87C1603.93 179.87 1618.95 182.791 1632.03 188.634C1645.25 194.338 1656.38 202.337 1665.42 212.631C1674.46 222.926 1681.35 235.098 1686.08 249.149C1690.81 263.061 1693.17 278.294 1693.17 294.848V299.23C1693.17 315.646 1690.81 330.879 1686.08 344.93C1681.35 358.841 1674.46 371.014 1665.42 381.447C1656.38 391.742 1645.32 399.741 1632.24 405.445C1619.16 411.148 1604.21 414 1587.37 414C1570.68 414 1555.73 411.148 1542.51 405.445C1529.29 399.741 1518.16 391.742 1509.12 381.447C1500.08 371.014 1493.19 358.841 1488.46 344.93C1483.73 330.879 1481.37 315.646 1481.37 299.23ZM1536.46 294.848V299.23C1536.46 309.108 1537.43 318.359 1539.38 326.984C1541.33 335.609 1544.32 343.191 1548.35 349.729C1552.39 356.268 1557.6 361.415 1564 365.171C1570.54 368.788 1578.33 370.596 1587.37 370.596C1596.28 370.596 1603.93 368.788 1610.33 365.171C1616.73 361.415 1621.94 356.268 1625.98 349.729C1630.15 343.191 1633.21 335.609 1635.16 326.984C1637.11 318.359 1638.08 309.108 1638.08 299.23V294.848C1638.08 285.11 1637.11 275.998 1635.16 267.512C1633.21 258.887 1630.15 251.305 1625.98 244.767C1621.94 238.089 1616.66 232.873 1610.12 229.117C1603.72 225.221 1596 223.274 1586.96 223.274C1578.05 223.274 1570.4 225.221 1564 229.117C1557.6 232.873 1552.39 238.089 1548.35 244.767C1544.32 251.305 1541.33 258.887 1539.38 267.512C1537.43 275.998 1536.46 285.11 1536.46 294.848Z" fill="url(#paint1_linear_57_2)"/>
<path d="M1239.31 299.23V294.848C1239.31 278.294 1241.67 263.061 1246.4 249.149C1251.13 235.098 1258.02 222.926 1267.06 212.631C1276.1 202.337 1287.16 194.338 1300.24 188.634C1313.32 182.791 1328.2 179.87 1344.9 179.87C1361.87 179.87 1376.89 182.791 1389.97 188.634C1403.19 194.338 1414.31 202.337 1423.36 212.631C1432.4 222.926 1439.29 235.098 1444.02 249.149C1448.75 263.061 1451.11 278.294 1451.11 294.848V299.23C1451.11 315.646 1448.75 330.879 1444.02 344.93C1439.29 358.841 1432.4 371.014 1423.36 381.447C1414.31 391.742 1403.26 399.741 1390.18 405.445C1377.1 411.148 1362.15 414 1345.31 414C1328.62 414 1313.67 411.148 1300.45 405.445C1287.23 399.741 1276.1 391.742 1267.06 381.447C1258.02 371.014 1251.13 358.841 1246.4 344.93C1241.67 330.879 1239.31 315.646 1239.31 299.23ZM1294.4 294.848V299.23C1294.4 309.108 1295.37 318.359 1297.32 326.984C1299.27 335.609 1302.26 343.191 1306.29 349.729C1310.33 356.268 1315.54 361.415 1321.94 365.171C1328.48 368.788 1336.27 370.596 1345.31 370.596C1354.22 370.596 1361.87 368.788 1368.27 365.171C1374.67 361.415 1379.88 356.268 1383.92 349.729C1388.09 343.191 1391.15 335.609 1393.1 326.984C1395.05 318.359 1396.02 309.108 1396.02 299.23V294.848C1396.02 285.11 1395.05 275.998 1393.1 267.512C1391.15 258.887 1388.09 251.305 1383.92 244.767C1379.88 238.089 1374.6 232.873 1368.06 229.117C1361.66 225.221 1353.94 223.274 1344.9 223.274C1335.99 223.274 1328.34 225.221 1321.94 229.117C1315.54 232.873 1310.33 238.089 1306.29 244.767C1302.26 251.305 1299.27 258.887 1297.32 267.512C1295.37 275.998 1294.4 285.11 1294.4 294.848Z" fill="url(#paint2_linear_57_2)"/>
<path d="M1064.44 232.247V409.827H1009.35V184.043H1061.1L1064.44 232.247ZM1055.68 288.797H1039.4C1039.54 272.381 1041.77 257.496 1046.08 244.141C1050.39 230.786 1056.44 219.309 1064.23 209.71C1072.16 200.111 1081.55 192.738 1092.4 187.591C1103.25 182.443 1115.36 179.87 1128.71 179.87C1139.56 179.87 1149.37 181.4 1158.13 184.461C1166.9 187.521 1174.41 192.39 1180.67 199.068C1187.07 205.745 1191.94 214.509 1195.28 225.36C1198.76 236.072 1200.5 249.288 1200.5 265.008V409.827H1144.99V264.591C1144.99 254.296 1143.46 246.158 1140.4 240.176C1137.48 234.194 1133.16 229.951 1127.46 227.447C1121.9 224.943 1115.01 223.691 1106.8 223.691C1098.32 223.691 1090.87 225.43 1084.47 228.908C1078.21 232.247 1072.93 236.907 1068.61 242.889C1064.44 248.871 1061.24 255.757 1059.02 263.547C1056.79 271.338 1055.68 279.754 1055.68 288.797Z" fill="url(#paint3_linear_57_2)"/>
<path d="M906.06 356.198V184.043H961.567V409.827H909.399L906.06 356.198ZM913.155 309.455L930.266 309.038C930.266 324.201 928.597 338.182 925.258 350.981C921.919 363.78 916.703 374.909 909.608 384.369C902.652 393.689 893.818 400.993 883.106 406.279C872.395 411.426 859.735 414 845.128 414C833.999 414 823.844 412.47 814.662 409.409C805.48 406.21 797.551 401.271 790.873 394.594C784.335 387.777 779.257 379.082 775.64 368.51C772.023 357.798 770.215 344.93 770.215 329.905V184.043H825.304V330.322C825.304 337.835 826.139 344.095 827.808 349.103C829.617 354.111 832.051 358.215 835.112 361.415C838.312 364.475 841.998 366.701 846.171 368.092C850.484 369.344 855.075 369.97 859.944 369.97C873.299 369.97 883.802 367.327 891.453 362.041C899.244 356.615 904.808 349.381 908.147 340.339C911.486 331.157 913.155 320.863 913.155 309.455Z" fill="url(#paint4_linear_57_2)"/>
<path d="M567.385 106V409.827H510V106H567.385ZM749.764 106L627.9 254.157L558.203 328.653L547.978 272.938L596.39 210.127L679.442 106H749.764ZM685.911 409.827L591.382 267.512L632.491 230.369L754.146 409.827H685.911Z" fill="url(#paint5_linear_57_2)"/>
<path d="M176.001 205.916V70.9302H166.583V205.916H176.001Z" fill="#1BAAE1"/>
<path d="M183.849 56.8041C183.849 63.739 178.227 69.3609 171.292 69.3609C164.357 69.3609 158.735 63.739 158.735 56.8041C158.735 49.8692 164.357 44.2473 171.292 44.2473C178.227 44.2473 183.849 49.8692 183.849 56.8041Z" stroke="#1BAAE1" stroke-width="8"/>
<path d="M242.421 205.817V100.654H233.003V205.817H242.421Z" fill="#1BAAE1"/>
<path d="M250.269 88.0973C250.269 95.0322 244.647 100.654 237.712 100.654C230.777 100.654 225.155 95.0322 225.155 88.0973C225.155 81.1624 230.777 75.5405 237.712 75.5405C244.647 75.5405 250.269 81.1624 250.269 88.0973Z" stroke="#1BAAE1" stroke-width="8"/>
<path d="M228.697 270.948H347.986V261.53H228.697V270.948Z" fill="#218BBF"/>
<path d="M362.776 278.795C355.841 278.795 350.219 273.174 350.219 266.239C350.219 259.304 355.841 253.682 362.776 253.682C369.711 253.682 375.333 259.304 375.333 266.239C375.333 273.174 369.711 278.795 362.776 278.795Z" stroke="#218BBF" stroke-width="8"/>
<path d="M166.663 317.214V449.06H176.081V317.214H166.663Z" fill="#1971D7"/>
<path d="M158.815 462.977C158.815 456.042 164.437 450.421 171.372 450.421C178.307 450.421 183.929 456.042 183.929 462.977C183.929 469.912 178.307 475.534 171.372 475.534C164.437 475.534 158.815 469.912 158.815 462.977Z" stroke="#1971D7" stroke-width="8"/>
<path d="M237.711 24.5568C237.711 31.4917 232.089 37.1136 225.154 37.1136C218.22 37.1136 212.598 31.4917 212.598 24.5568C212.598 17.6219 218.22 12 225.154 12C232.089 12 237.711 17.6219 237.711 24.5568Z" stroke="#1BAAE1" stroke-width="8"/>
<path d="M229.815 61.912V36.9561H220.337V58.7925L191.906 88.4278V205.409H201.383V92.3271L229.815 61.912Z" fill="#1BAAE1"/>
<path d="M236.133 456.529V481.485H226.655V459.648L191.906 425.334L191.906 317.711H201.383L201.383 422.214L236.133 456.529Z" fill="#1971D7"/>
<path d="M244.03 495.443C244.03 488.508 238.408 482.886 231.473 482.886C224.538 482.886 218.916 488.508 218.916 495.443C218.916 502.378 224.538 508 231.473 508C238.408 508 244.03 502.378 244.03 495.443Z" stroke="#1971D7" stroke-width="8"/>
<path d="M417.776 217.966C417.776 224.901 412.154 230.523 405.219 230.523C398.284 230.523 392.662 224.901 392.662 217.966C392.662 211.031 398.284 205.409 405.219 205.409C412.154 205.409 417.776 211.031 417.776 217.966Z" stroke="#218BBF" stroke-width="8"/>
<path d="M391.714 222.566V213.208H340.38L314.318 238.944H228.234V248.302H319.204L345.118 222.566H391.714Z" fill="#218BBF"/>
<path d="M417.776 312.953C417.776 306.018 412.154 300.396 405.219 300.396C398.284 300.396 392.662 306.018 392.662 312.953C392.662 319.888 398.284 325.51 405.219 325.51C412.154 325.51 417.776 319.888 417.776 312.953Z" stroke="#218BBF" stroke-width="8"/>
<path d="M391.714 309.133V318.491H340.38L314.318 292.756H228.234V283.397H319.204L345.118 309.133H391.714Z" fill="#218BBF"/>
<path d="M15 81.3584C15 48.2213 41.8629 21.3584 75 21.3584H127.94C136.225 21.3584 142.94 28.0741 142.94 36.3584V483.641C142.94 491.926 136.225 498.641 127.94 498.641H75C41.8629 498.641 15 471.778 15 438.641V81.3584Z" fill="#153985"/>
<path d="M290.703 484.997C291.649 486.224 293.112 486.943 294.662 486.943H419.629C423.747 486.943 426.1 482.242 423.63 478.945L273.639 278.717C247.188 317.71 226.654 330.188 193.879 359.465L290.703 484.997Z" fill="url(#paint6_linear_57_2)"/>
<path d="M184.797 347.69C217.967 316.151 241.66 304.452 263.124 264.679L252.166 250.392C250.353 248.029 246.888 247.765 244.737 249.827L169.913 321.583C168.053 323.367 167.854 326.273 169.453 328.294L184.797 347.69Z" fill="url(#paint7_linear_57_2)"/>
<path d="M184.797 347.69C217.967 316.151 241.66 304.452 263.124 264.679L252.166 250.392C250.353 248.029 246.888 247.765 244.737 249.827L169.913 321.583C168.053 323.367 167.854 326.273 169.453 328.294L184.797 347.69Z" fill="#1CA2A1"/>
<path d="M193.879 359.465C226.654 330.188 247.188 317.71 273.639 278.717L263.124 264.679C241.66 304.452 217.967 316.151 184.797 347.69L193.879 359.465Z" fill="url(#paint8_linear_57_2)"/>
<path d="M423.295 49.3479C425.973 46.0844 423.651 41.1765 419.43 41.1765H304.332C302.888 41.1765 301.514 41.8008 300.565 42.8887L131.212 236.925C131.212 236.925 107.519 268.9 100.412 293.856C93.3037 318.812 90.9345 335.969 90.9345 335.969C90.9345 335.969 89.4076 370.24 92.514 391.34C95.8419 413.944 99.9236 427.223 108.309 449.051C108.698 450.063 109.124 451.105 109.583 452.17C109.583 452.17 108.499 437.336 109.889 427.994C111.434 417.604 113.635 411.927 117.786 402.258C123.733 388.408 128.162 381.367 137.53 369.504C149.198 354.727 157.49 348.6 172.279 335.969C201.5 311.013 245.727 265.78 245.727 265.78L423.295 49.3479Z" fill="url(#paint9_linear_57_2)"/>
<path d="M92.514 391.34C89.4076 370.24 90.9345 335.969 90.9345 335.969C90.9345 335.969 84.9882 373.835 86.9858 397.579C88.5783 416.509 91.0134 427.169 97.1074 445.886C99.9738 454.69 104.704 467.518 112.258 477.126C120.764 487.945 132.002 495.063 132.002 495.063C135.877 497.321 117.706 471.047 109.583 452.17C109.124 451.105 108.698 450.063 108.309 449.051C99.9236 427.223 95.8419 413.944 92.514 391.34Z" fill="#153985"/>
<path d="M100.412 293.856C107.519 268.9 131.212 236.925 131.212 236.925C131.212 236.925 99.4275 268.672 86.9858 293.856C76.2865 315.513 71.2141 340.648 70.4009 353.126C69.5877 365.604 66.8796 422.142 90.1447 456.07C113.41 489.997 132.002 495.063 132.002 495.063C132.002 495.063 120.764 487.945 112.258 477.126C104.704 467.518 99.9738 454.69 97.1074 445.886C91.0134 427.169 88.5783 416.509 86.9858 397.579C84.9882 373.835 90.9345 335.969 90.9345 335.969C90.9345 335.969 93.3037 318.812 100.412 293.856Z" fill="url(#paint10_linear_57_2)"/>
<defs>
<linearGradient id="paint0_linear_57_2" x1="1725.33" y1="179.148" x2="1732.08" y2="415.147" gradientUnits="userSpaceOnUse">
<stop stop-color="#153985"/>
<stop offset="1" stop-color="#1961B5"/>
</linearGradient>
<linearGradient id="paint1_linear_57_2" x1="1485.93" y1="174.794" x2="1492.28" y2="419.552" gradientUnits="userSpaceOnUse">
<stop stop-color="#153985"/>
<stop offset="1" stop-color="#1961B5"/>
</linearGradient>
<linearGradient id="paint2_linear_57_2" x1="1243.86" y1="174.794" x2="1250.22" y2="419.552" gradientUnits="userSpaceOnUse">
<stop stop-color="#153985"/>
<stop offset="1" stop-color="#1961B5"/>
</linearGradient>
<linearGradient id="paint3_linear_57_2" x1="1013.46" y1="174.884" x2="1020.26" y2="415.25" gradientUnits="userSpaceOnUse">
<stop stop-color="#153985"/>
<stop offset="1" stop-color="#1961B5"/>
</linearGradient>
<linearGradient id="paint4_linear_57_2" x1="774.331" y1="179.058" x2="781.119" y2="419.424" gradientUnits="userSpaceOnUse">
<stop stop-color="#153985"/>
<stop offset="1" stop-color="#1961B5"/>
</linearGradient>
<linearGradient id="paint5_linear_57_2" x1="515.252" y1="99.413" x2="524.538" y2="416.974" gradientUnits="userSpaceOnUse">
<stop stop-color="#153985"/>
<stop offset="1" stop-color="#1961B5"/>
</linearGradient>
<linearGradient id="paint6_linear_57_2" x1="278.778" y1="295.094" x2="334.34" y2="483.427" gradientUnits="userSpaceOnUse">
<stop offset="0.00367985" stop-color="#21BAB8"/>
<stop offset="1" stop-color="#1CA2A1"/>
</linearGradient>
<linearGradient id="paint7_linear_57_2" x1="278.778" y1="295.094" x2="334.34" y2="483.427" gradientUnits="userSpaceOnUse">
<stop offset="0.00367985" stop-color="#21BAB8"/>
<stop offset="1" stop-color="#1CA2A1"/>
</linearGradient>
<linearGradient id="paint8_linear_57_2" x1="278.778" y1="295.094" x2="334.34" y2="483.427" gradientUnits="userSpaceOnUse">
<stop stop-color="#21BAB8"/>
<stop offset="0.99632" stop-color="#1CA2A1"/>
</linearGradient>
<linearGradient id="paint9_linear_57_2" x1="245.462" y1="39.6168" x2="245.462" y2="495.2" gradientUnits="userSpaceOnUse">
<stop stop-color="#1CA2A1"/>
<stop offset="1" stop-color="#21BAB8"/>
</linearGradient>
<linearGradient id="paint10_linear_57_2" x1="249.935" y1="41.1765" x2="249.935" y2="495.2" gradientUnits="userSpaceOnUse">
<stop stop-color="#1BC4CB"/>
<stop offset="0.846154" stop-color="#114293"/>
</linearGradient>
</defs>
</svg>
